<svg version="1.1" id="Layer_1" xmlns="http://www.w3.org/2000/svg" xmlns:xlink="http://www.w3.org/1999/xlink" x="0px" y="0px"
	 width="100%" viewBox="0 0 512 512" enable-background="new 0 0 512 512" xml:space="preserve">
<path fill="#000000" opacity="1.000000" stroke="none" 
	d="
M1.000000,193.000000 
	C1.000000,128.666672 1.000000,64.833336 1.000000,1.000000 
	C171.666672,1.000000 342.333344,1.000000 513.000000,1.000000 
	C513.000000,171.666672 513.000000,342.333344 513.000000,513.000000 
	C342.333344,513.000000 171.666672,513.000000 1.000000,513.000000 
	C1.000000,406.500000 1.000000,300.000000 1.000000,193.000000 
M496.992340,240.699722 
	C496.677307,238.229675 496.248596,235.768066 496.064667,233.288284 
	C493.943817,204.697891 485.882874,177.689651 473.414703,152.066895 
	C459.831848,124.153343 441.697357,99.562714 418.415741,78.731926 
	C402.925415,64.872192 386.162689,52.994587 367.793243,43.476276 
	C325.275513,21.445253 280.041504,13.454689 232.430374,17.895727 
	C204.942886,20.459686 178.760574,27.788448 153.985779,39.634422 
	C121.936020,54.958893 94.186760,76.019791 71.604828,103.747658 
	C53.222363,126.319084 39.194054,151.186081 29.593559,178.654572 
	C17.917095,212.062729 14.817220,246.379700 17.919308,281.447784 
	C20.426945,309.795776 28.238581,336.697937 40.692219,362.155762 
	C54.258888,389.888794 72.277519,414.349243 95.416870,435.088287 
	C116.085571,453.613037 139.000336,468.304871 164.546921,479.018982 
	C201.847244,494.662567 240.653870,499.656952 280.816803,496.104004 
	C310.044952,493.518402 337.688049,485.454193 363.829620,472.481140 
	C393.511169,457.751404 418.941681,437.479401 440.474548,412.170532 
	C467.284271,380.659454 484.316711,344.550842 492.913971,304.255310 
	C497.324860,283.581390 497.249664,262.630157 496.992340,240.699722 
z"/>
<path fill="#232021" opacity="1.000000" stroke="none" 
	d="
M496.993958,241.179871 
	C497.249664,262.630157 497.324860,283.581390 492.913971,304.255310 
	C484.316711,344.550842 467.284271,380.659454 440.474548,412.170532 
	C418.941681,437.479401 393.511169,457.751404 363.829620,472.481140 
	C337.688049,485.454193 310.044952,493.518402 280.816803,496.104004 
	C240.653870,499.656952 201.847244,494.662567 164.546921,479.018982 
	C139.000336,468.304871 116.085571,453.613037 95.416870,435.088287 
	C72.277519,414.349243 54.258888,389.888794 40.692219,362.155762 
	C28.238581,336.697937 20.426945,309.795776 17.919308,281.447784 
	C14.817220,246.379700 17.917095,212.062729 29.593559,178.654572 
	C39.194054,151.186081 53.222363,126.319084 71.604828,103.747658 
	C94.186760,76.019791 121.936020,54.958893 153.985779,39.634422 
	C178.760574,27.788448 204.942886,20.459686 232.430374,17.895727 
	C280.041504,13.454689 325.275513,21.445253 367.793243,43.476276 
	C386.162689,52.994587 402.925415,64.872192 418.415741,78.731926 
	C441.697357,99.562714 459.831848,124.153343 473.414703,152.066895 
	C485.882874,177.689651 493.943817,204.697891 496.064667,233.288284 
	C496.248596,235.768066 496.677307,238.229675 496.993958,241.179871 
M99.102676,415.754089 
	C164.715973,481.242920 263.240936,499.153229 348.984467,461.178772 
	C460.583405,411.753387 511.904602,277.919037 461.886475,166.642776 
	C450.449646,141.199066 435.311768,118.272423 414.802307,98.277916 
	C351.087311,34.864033 255.490845,15.580748 172.748978,49.452011 
	C56.788857,96.921524 2.237060,228.574295 50.734592,344.133057 
	C62.002563,370.982117 77.742569,394.889984 99.102676,415.754089 
z"/>
<path fill="#006DF0" opacity="1.000000" stroke="none" 
	d="
M415.080353,98.884247 
	C435.311768,118.272423 450.449646,141.199066 461.886475,166.642776 
	C511.904602,277.919037 460.583405,411.753387 348.984467,461.178772 
	C263.240936,499.153229 164.715973,481.242920 99.236252,415.250549 
	C100.945847,413.269318 102.564461,411.834198 104.091682,410.307678 
	C138.804062,375.611603 173.503021,340.902130 208.217072,306.207733 
	C211.038681,303.387726 213.950516,300.657990 216.890976,298.361328 
	C216.975830,324.989227 216.825928,351.143555 217.051056,377.294647 
	C217.272614,403.030090 241.026413,421.680695 265.818237,415.895874 
	C283.864197,411.685150 296.924072,394.486969 296.971436,374.409973 
	C297.066559,334.097809 296.882111,293.784668 297.084473,253.473297 
	C297.135437,243.329529 295.164520,234.003174 289.741150,225.192902 
	C291.507904,223.160263 293.030823,221.398148 294.672943,219.755142 
	C333.233917,181.173172 371.810486,142.606766 410.369751,104.023087 
	C412.010834,102.380959 413.513306,100.600349 415.080353,98.884247 
z"/>
<path fill="#2488FE" opacity="1.000000" stroke="none" 
	d="
M216.820450,297.886353 
	C213.950516,300.657990 211.038681,303.387726 208.217072,306.207733 
	C173.503021,340.902130 138.804062,375.611603 104.091682,410.307678 
	C102.564461,411.834198 100.945847,413.269318 99.087563,414.949463 
	C77.742569,394.889984 62.002563,370.982117 50.734592,344.133057 
	C2.237060,228.574295 56.788857,96.921524 172.748978,49.452011 
	C255.490845,15.580748 351.087311,34.864033 414.941345,98.581085 
	C413.513306,100.600349 412.010834,102.380959 410.369751,104.023087 
	C371.810486,142.606766 333.233917,181.173172 294.672943,219.755142 
	C293.030823,221.398148 291.507904,223.160263 289.501801,224.971802 
	C281.210449,215.120300 270.996918,209.403015 258.278412,209.104675 
	C244.152725,208.773315 230.010162,208.839050 215.880844,209.079132 
	C202.356689,209.308960 190.572906,218.483521 186.492966,231.410339 
	C182.461609,244.183258 186.509979,258.436188 197.555069,266.050690 
	C203.082611,269.861389 209.911621,271.784271 216.820450,274.858429 
	C216.820450,281.647797 216.820450,289.767090 216.820450,297.886353 
M164.345261,88.797401 
	C178.552231,80.968498 193.550964,75.156006 209.228394,71.023956 
	C215.225494,69.443329 218.049820,65.359039 216.679184,60.682388 
	C215.275864,55.894230 211.018768,53.974911 204.924408,55.677052 
	C134.698547,75.291016 86.678307,119.283607 60.971558,187.446106 
	C52.731220,209.295685 49.149361,232.122269 49.019211,255.469269 
	C48.984875,261.628845 52.823410,265.581940 57.962467,264.921448 
	C62.344475,264.358307 64.536560,260.998932 65.072685,255.542175 
	C66.388855,242.145889 66.775085,228.498444 69.735550,215.451248 
	C82.395691,159.656204 114.144524,117.681824 164.345261,88.797401 
M289.170013,176.616272 
	C289.740997,175.797729 290.355591,175.005936 290.876495,174.156677 
	C300.024658,159.241623 298.830780,140.946381 287.847534,127.550308 
	C277.130035,114.478355 259.069733,109.607109 243.129868,115.489021 
	C227.058090,121.419624 216.598404,136.939407 217.007629,154.248489 
	C217.395065,170.635864 228.400925,185.521179 244.071732,190.852463 
	C260.351044,196.390747 277.325836,191.209488 289.170013,176.616272 
M252.375244,49.033638 
	C248.398132,49.256660 244.404175,49.321507 240.448135,49.742538 
	C235.445724,50.274944 232.717514,53.332878 232.827499,57.850670 
	C232.935150,62.272766 236.096298,65.570839 240.878525,65.591148 
	C246.515717,65.615105 252.169495,65.357056 257.788422,64.889175 
	C262.102142,64.529968 265.223206,60.842472 264.937195,56.752022 
	C264.630707,52.368294 262.101318,49.782013 257.792145,49.089287 
	C256.334259,48.854916 254.809692,49.034935 252.375244,49.033638 
z"/>
<path fill="#232021" opacity="1.000000" stroke="none" 
	d="
M216.890976,298.361328 
	C216.820450,289.767090 216.820450,281.647797 216.820450,274.858429 
	C209.911621,271.784271 203.082611,269.861389 197.555069,266.050690 
	C186.509979,258.436188 182.461609,244.183258 186.492966,231.410339 
	C190.572906,218.483521 202.356689,209.308960 215.880844,209.079132 
	C230.010162,208.839050 244.152725,208.773315 258.278412,209.104675 
	C270.996918,209.403015 281.210449,215.120300 289.313477,225.297806 
	C295.164520,234.003174 297.135437,243.329529 297.084473,253.473297 
	C296.882111,293.784668 297.066559,334.097809 296.971436,374.409973 
	C296.924072,394.486969 283.864197,411.685150 265.818237,415.895874 
	C241.026413,421.680695 217.272614,403.030090 217.051056,377.294647 
	C216.825928,351.143555 216.975830,324.989227 216.890976,298.361328 
M262.461639,225.705307 
	C246.338684,225.547562 230.196182,224.860596 214.100967,225.454590 
	C206.013092,225.753067 200.410934,234.166824 201.040573,242.262985 
	C201.649368,250.090744 208.152206,256.445679 216.137314,256.958679 
	C217.796021,257.065216 219.466339,256.997223 221.131317,256.998901 
	C230.893829,257.008850 232.995941,259.152008 232.999756,269.111176 
	C233.001663,274.106445 232.999939,279.101715 233.000092,284.096985 
	C233.001068,315.067627 232.943710,346.038452 233.033768,377.008820 
	C233.066849,388.388214 240.398315,397.501831 251.306274,400.266693 
	C261.522156,402.856201 272.203094,398.318420 277.272156,388.269501 
	C279.435211,383.981567 280.810699,378.798706 280.842316,374.011292 
	C281.115051,332.718903 281.020142,291.423889 280.986053,250.129745 
	C280.976074,238.037430 274.845490,229.757294 262.461639,225.705307 
z"/>
<path fill="#232124" opacity="1.000000" stroke="none" 
	d="
M164.013916,88.960205 
	C114.144524,117.681824 82.395691,159.656204 69.735550,215.451248 
	C66.775085,228.498444 66.388855,242.145889 65.072685,255.542175 
	C64.536560,260.998932 62.344475,264.358307 57.962467,264.921448 
	C52.823410,265.581940 48.984875,261.628845 49.019211,255.469269 
	C49.149361,232.122269 52.731220,209.295685 60.971558,187.446106 
	C86.678307,119.283607 134.698547,75.291016 204.924408,55.677052 
	C211.018768,53.974911 215.275864,55.894230 216.679184,60.682388 
	C218.049820,65.359039 215.225494,69.443329 209.228394,71.023956 
	C193.550964,75.156006 178.552231,80.968498 164.013916,88.960205 
z"/>
<path fill="#242122" opacity="1.000000" stroke="none" 
	d="
M288.967346,176.913452 
	C277.325836,191.209488 260.351044,196.390747 244.071732,190.852463 
	C228.400925,185.521179 217.395065,170.635864 217.007629,154.248489 
	C216.598404,136.939407 227.058090,121.419624 243.129868,115.489021 
	C259.069733,109.607109 277.130035,114.478355 287.847534,127.550308 
	C298.830780,140.946381 300.024658,159.241623 290.876495,174.156677 
	C290.355591,175.005936 289.740997,175.797729 288.967346,176.913452 
M280.279449,147.512238 
	C276.775330,135.104263 266.155426,127.631088 254.183594,129.148743 
	C242.470490,130.633575 233.410538,140.472763 233.034927,152.116318 
	C232.580261,166.210541 244.362228,177.736496 258.417267,176.947128 
	C272.769470,176.141052 282.603363,163.402359 280.279449,147.512238 
z"/>
<path fill="#232225" opacity="1.000000" stroke="none" 
	d="
M252.845428,49.029610 
	C254.809692,49.034935 256.334259,48.854916 257.792145,49.089287 
	C262.101318,49.782013 264.630707,52.368294 264.937195,56.752022 
	C265.223206,60.842472 262.102142,64.529968 257.788422,64.889175 
	C252.169495,65.357056 246.515717,65.615105 240.878525,65.591148 
	C236.096298,65.570839 232.935150,62.272766 232.827499,57.850670 
	C232.717514,53.332878 235.445724,50.274944 240.448135,49.742538 
	C244.404175,49.321507 248.398132,49.256660 252.845428,49.029610 
z"/>
<path fill="#FECD00" opacity="1.000000" stroke="none" 
	d="
M262.866425,225.803574 
	C274.845490,229.757294 280.976074,238.037430 280.986053,250.129745 
	C281.020142,291.423889 281.115051,332.718903 280.842316,374.011292 
	C280.810699,378.798706 279.435211,383.981567 277.272156,388.269501 
	C272.203094,398.318420 261.522156,402.856201 251.306274,400.266693 
	C240.398315,397.501831 233.066849,388.388214 233.033768,377.008820 
	C232.943710,346.038452 233.001068,315.067627 233.000092,284.096985 
	C232.999939,279.101715 233.001663,274.106445 232.999756,269.111176 
	C232.995941,259.152008 230.893829,257.008850 221.131317,256.998901 
	C219.466339,256.997223 217.796021,257.065216 216.137314,256.958679 
	C208.152206,256.445679 201.649368,250.090744 201.040573,242.262985 
	C200.410934,234.166824 206.013092,225.753067 214.100967,225.454590 
	C230.196182,224.860596 246.338684,225.547562 262.866425,225.803574 
z"/>
<path fill="#FDCB00" opacity="1.000000" stroke="none" 
	d="
M280.399963,147.913528 
	C282.603363,163.402359 272.769470,176.141052 258.417267,176.947128 
	C244.362228,177.736496 232.580261,166.210541 233.034927,152.116318 
	C233.410538,140.472763 242.470490,130.633575 254.183594,129.148743 
	C266.155426,127.631088 276.775330,135.104263 280.399963,147.913528 
z"/>
</svg>