<svg version="1.1" id="Layer_1" xmlns="http://www.w3.org/2000/svg" xmlns:xlink="http://www.w3.org/1999/xlink" x="0px" y="0px"
	 width="100%" viewBox="0 0 512 512" enable-background="new 0 0 512 512" xml:space="preserve">
<path fill="#000000" opacity="1.000000" stroke="none" 
	d="
M1.000000,183.000000 
	C1.000000,122.000000 1.000000,61.500000 1.000000,1.000000 
	C171.666672,1.000000 342.333344,1.000000 513.000000,1.000000 
	C513.000000,171.666672 513.000000,342.333344 513.000000,513.000000 
	C342.333344,513.000000 171.666672,513.000000 1.000000,513.000000 
	C1.000000,403.166656 1.000000,293.333344 1.000000,183.000000 
M479.832184,74.941338 
	C480.291718,74.757446 480.737823,74.523178 481.212677,74.396927 
	C500.196503,69.349304 509.710693,53.457954 506.770203,34.196499 
	C504.506775,19.370062 489.573639,6.582646 472.634338,6.707484 
	C451.811737,6.860940 434.219757,26.067085 439.708038,49.279991 
	C443.101410,63.632504 452.855957,71.730171 466.973663,75.981598 
	C466.976440,97.346779 466.979187,118.711952 466.318146,139.835419 
	C457.723206,129.233765 449.649841,118.146271 440.369781,108.182724 
	C432.820435,100.077393 424.097168,92.979164 415.418823,86.028206 
	C391.779663,67.094383 365.274628,53.616478 336.327118,44.600101 
	C310.245178,36.476280 283.713623,32.068432 256.418610,33.078140 
	C241.315109,33.636856 226.022751,33.743954 211.213959,36.333351 
	C195.789536,39.030396 180.704849,44.032589 165.726196,48.822918 
	C148.049362,54.476158 131.497620,62.827278 116.272392,73.413246 
	C105.475731,80.920059 94.965599,88.969551 85.118111,97.671417 
	C76.567787,105.227020 68.939621,113.868797 61.262661,122.355072 
	C56.186604,127.966255 51.744564,134.150986 47.006058,139.131744 
	C47.032330,117.773270 47.058598,96.414803 47.832211,74.941315 
	C48.291740,74.757431 48.737877,74.523170 49.212727,74.396912 
	C68.196541,69.349205 77.710640,53.458126 74.770195,34.196468 
	C72.506859,19.370195 57.573700,6.582637 40.634323,6.707478 
	C19.811970,6.860936 2.219709,26.066980 7.708039,49.280006 
	C11.101452,63.632526 20.856045,71.730118 34.973667,75.981621 
	C34.983017,101.778397 34.970108,127.575241 35.047661,153.371811 
	C35.053329,155.257141 35.713966,157.140503 35.929401,159.731110 
	C32.001228,167.650574 27.577465,175.367111 24.236265,183.526917 
	C13.507213,209.729187 7.167574,236.961487 7.038222,265.392853 
	C6.877518,300.715576 6.910968,336.039856 7.037920,371.362854 
	C7.099462,388.486481 13.957130,403.207886 25.256035,415.541595 
	C40.033176,431.672028 58.498772,439.489014 80.799637,439.145325 
	C116.114685,438.601074 151.444290,439.006348 186.767731,438.995605 
	C194.560272,438.993225 198.227402,442.467773 198.091629,450.031891 
	C197.910324,460.132629 195.674286,469.640381 191.073547,478.531708 
	C187.258850,485.903931 188.740555,495.019135 193.367691,499.899994 
	C198.068130,504.858215 206.960861,506.684845 214.274796,503.881500 
	C236.081635,495.523224 257.620331,486.485809 276.079071,471.840027 
	C284.493805,465.163544 292.551605,457.761200 299.517120,449.615631 
	C305.848175,442.212097 312.288422,438.600464 322.444580,438.754608 
	C362.091003,439.356506 401.753448,439.168365 441.406006,438.823395 
	C447.524170,438.770203 453.806305,436.909424 459.691193,434.929321 
	C472.620209,430.579041 483.174957,422.745819 491.657043,411.932861 
	C500.917755,400.127258 506.797821,387.045868 506.925232,371.971497 
	C507.178711,341.982025 507.201752,311.987000 506.909790,281.998230 
	C506.776703,268.324799 506.566437,254.540268 504.749908,241.026749 
	C502.957581,227.693192 499.454834,214.543640 496.042389,201.485870 
	C492.122864,186.487854 485.505371,172.525925 478.549469,158.456253 
	C478.699097,156.479248 478.974854,154.502518 478.979248,152.525192 
	C479.036804,126.702286 479.056000,100.879280 479.832184,74.941338 
z"/>
<path fill="#CFD8DC" opacity="1.000000" stroke="none" 
	d="
M47.018669,140.078934 
	C51.744564,134.150986 56.186604,127.966255 61.262661,122.355072 
	C68.939621,113.868797 76.567787,105.227020 85.118111,97.671417 
	C94.965599,88.969551 105.475731,80.920059 116.272392,73.413246 
	C131.497620,62.827278 148.049362,54.476158 165.726196,48.822918 
	C180.704849,44.032589 195.789536,39.030396 211.213959,36.333351 
	C226.022751,33.743954 241.315109,33.636856 256.418610,33.078140 
	C283.713623,32.068432 310.245178,36.476280 336.327118,44.600101 
	C365.274628,53.616478 391.779663,67.094383 415.418823,86.028206 
	C424.097168,92.979164 432.820435,100.077393 440.369781,108.182724 
	C449.649841,118.146271 457.723206,129.233765 466.660583,140.320557 
	C470.644989,146.879913 474.286957,152.954117 477.928925,159.028336 
	C485.505371,172.525925 492.122864,186.487854 496.042389,201.485870 
	C499.454834,214.543640 502.957581,227.693192 504.749908,241.026749 
	C506.566437,254.540268 506.776703,268.324799 506.909790,281.998230 
	C507.201752,311.987000 507.178711,341.982025 506.925232,371.971497 
	C506.797821,387.045868 500.917755,400.127258 491.657043,411.932861 
	C483.174957,422.745819 472.620209,430.579041 459.691193,434.929321 
	C453.806305,436.909424 447.524170,438.770203 441.406006,438.823395 
	C401.753448,439.168365 362.091003,439.356506 322.444580,438.754608 
	C312.288422,438.600464 305.848175,442.212097 299.517120,449.615631 
	C292.551605,457.761200 284.493805,465.163544 276.079071,471.840027 
	C257.620331,486.485809 236.081635,495.523224 214.274796,503.881500 
	C206.960861,506.684845 198.068130,504.858215 193.367691,499.899994 
	C188.740555,495.019135 187.258850,485.903931 191.073547,478.531708 
	C195.674286,469.640381 197.910324,460.132629 198.091629,450.031891 
	C198.227402,442.467773 194.560272,438.993225 186.767731,438.995605 
	C151.444290,439.006348 116.114685,438.601074 80.799637,439.145325 
	C58.498772,439.489014 40.033176,431.672028 25.256035,415.541595 
	C13.957130,403.207886 7.099462,388.486481 7.037920,371.362854 
	C6.910968,336.039856 6.877518,300.715576 7.038222,265.392853 
	C7.167574,236.961487 13.507213,209.729187 24.236265,183.526917 
	C27.577465,175.367111 32.001228,167.650574 36.313263,159.241211 
	C37.698471,157.068756 38.753323,155.415390 39.690773,153.697937 
	C42.160637,149.173126 44.579498,144.620499 47.018669,140.078934 
M344.500000,387.000061 
	C368.999359,386.999786 393.498901,387.059265 417.998016,386.981262 
	C439.367523,386.913208 454.919922,371.401245 454.977600,350.050995 
	C455.052795,322.219116 455.134430,294.385498 454.908325,266.555115 
	C454.734833,245.195129 451.099457,224.269104 442.447571,204.755737 
	C408.293793,127.725716 347.460022,88.449562 264.632751,83.425041 
	C216.256989,80.490433 172.059265,95.291908 133.541260,124.834076 
	C85.462578,161.708969 59.462463,210.298218 59.031364,271.565308 
	C58.853123,296.896332 58.996624,322.229675 59.000999,347.561951 
	C59.005264,372.261841 73.766624,386.998077 98.510147,386.998932 
	C180.173431,387.001831 261.836700,387.000061 344.500000,387.000061 
z"/>
<path fill="#37474F" opacity="1.000000" stroke="none" 
	d="
M34.916489,75.055328 
	C20.856045,71.730118 11.101452,63.632526 7.708039,49.280006 
	C2.219709,26.066980 19.811970,6.860936 40.634323,6.707478 
	C57.573700,6.582637 72.506859,19.370195 74.770195,34.196468 
	C77.710640,53.458126 68.196541,69.349205 49.212727,74.396912 
	C48.737877,74.523170 48.291740,74.757431 46.989845,74.976654 
	C42.403820,75.026443 38.660152,75.040886 34.916489,75.055328 
z"/>
<path fill="#37474F" opacity="1.000000" stroke="none" 
	d="
M466.916473,75.055283 
	C452.855957,71.730171 443.101410,63.632504 439.708038,49.279991 
	C434.219757,26.067085 451.811737,6.860940 472.634338,6.707484 
	C489.573639,6.582646 504.506775,19.370062 506.770203,34.196499 
	C509.710693,53.457954 500.196503,69.349304 481.212677,74.396927 
	C480.737823,74.523178 480.291718,74.757446 478.989807,74.976662 
	C474.403778,75.026421 470.660126,75.040855 466.916473,75.055283 
z"/>
<path fill="#263238" opacity="1.000000" stroke="none" 
	d="
M34.945076,75.518478 
	C38.660152,75.040886 42.403820,75.026443 46.616173,75.034164 
	C47.058598,96.414803 47.032330,117.773270 47.012360,139.605347 
	C44.579498,144.620499 42.160637,149.173126 39.690773,153.697937 
	C38.753323,155.415390 37.698471,157.068756 36.383610,158.888046 
	C35.713966,157.140503 35.053329,155.257141 35.047661,153.371811 
	C34.970108,127.575241 34.983017,101.778397 34.945076,75.518478 
z"/>
<path fill="#263238" opacity="1.000000" stroke="none" 
	d="
M466.945068,75.518440 
	C470.660126,75.040855 474.403778,75.026421 478.616150,75.034149 
	C479.056000,100.879280 479.036804,126.702286 478.979248,152.525192 
	C478.974854,154.502518 478.699097,156.479248 478.239197,158.742294 
	C474.286957,152.954117 470.644989,146.879913 466.992493,140.441406 
	C466.979187,118.711952 466.976440,97.346779 466.945068,75.518440 
z"/>
<path fill="#37474F" opacity="1.000000" stroke="none" 
	d="
M344.000000,387.000061 
	C261.836700,387.000061 180.173431,387.001831 98.510147,386.998932 
	C73.766624,386.998077 59.005264,372.261841 59.000999,347.561951 
	C58.996624,322.229675 58.853123,296.896332 59.031364,271.565308 
	C59.462463,210.298218 85.462578,161.708969 133.541260,124.834076 
	C172.059265,95.291908 216.256989,80.490433 264.632751,83.425041 
	C347.460022,88.449562 408.293793,127.725716 442.447571,204.755737 
	C451.099457,224.269104 454.734833,245.195129 454.908325,266.555115 
	C455.134430,294.385498 455.052795,322.219116 454.977600,350.050995 
	C454.919922,371.401245 439.367523,386.913208 417.998016,386.981262 
	C393.498901,387.059265 368.999359,386.999786 344.000000,387.000061 
M307.730316,320.912506 
	C315.609863,312.236115 320.849487,302.154266 323.620087,290.794983 
	C325.718658,282.190826 320.602173,275.086060 311.864136,275.057129 
	C275.225922,274.935730 238.586807,274.935974 201.948624,275.062622 
	C193.875153,275.090546 188.478363,281.658569 190.158157,289.501648 
	C192.743179,301.571411 197.991013,312.399811 207.085373,321.856506 
	C225.766647,340.899475 248.170227,347.593109 274.080963,341.357697 
	C287.105835,338.223267 298.480133,331.828094 307.730316,320.912506 
M127.345032,221.822586 
	C127.834053,223.582306 128.219788,225.378662 128.828720,227.095856 
	C133.017563,238.908722 144.188553,246.879150 156.636032,246.993896 
	C169.183929,247.109589 180.487747,239.446548 184.960388,227.792343 
	C189.454620,216.081879 186.230591,202.797577 176.891602,194.545807 
	C167.759003,186.476410 154.725372,184.713623 143.805557,190.070999 
	C132.304840,195.713364 126.372734,206.749664 127.345032,221.822586 
M361.820831,246.646927 
	C363.269287,246.274734 364.755768,246.010086 366.160248,245.513489 
	C378.319427,241.214020 385.529083,232.557327 386.767303,219.842361 
	C388.008057,207.101700 382.648376,197.001297 371.366943,190.799896 
	C360.076508,184.593521 348.864227,185.705399 338.586182,193.394135 
	C328.150238,201.201004 324.371429,215.108200 328.923004,227.425812 
	C333.746521,240.479355 345.705658,247.708466 361.820831,246.646927 
z"/>
<path fill="#FEFEFE" opacity="1.000000" stroke="none" 
	d="
M206.869858,321.234131 
	C197.991013,312.399811 192.743179,301.571411 190.158157,289.501648 
	C188.478363,281.658569 193.875153,275.090546 201.948624,275.062622 
	C238.586807,274.935974 275.225922,274.935730 311.864136,275.057129 
	C320.602173,275.086060 325.718658,282.190826 323.620087,290.794983 
	C320.849487,302.154266 315.609863,312.236115 307.159424,320.855042 
	C304.336212,318.822876 302.183228,316.719360 299.816345,314.893036 
	C272.794800,294.043030 233.360748,294.929779 206.869858,321.234131 
z"/>
<path fill="#05A9F4" opacity="1.000000" stroke="none" 
	d="
M206.977615,321.545319 
	C233.360748,294.929779 272.794800,294.043030 299.816345,314.893036 
	C302.183228,316.719360 304.336212,318.822876 306.860046,321.017456 
	C298.480133,331.828094 287.105835,338.223267 274.080963,341.357697 
	C248.170227,347.593109 225.766647,340.899475 206.977615,321.545319 
z"/>
<path fill="#03A8F3" opacity="1.000000" stroke="none" 
	d="
M127.272270,221.394058 
	C126.372734,206.749664 132.304840,195.713364 143.805557,190.070999 
	C154.725372,184.713623 167.759003,186.476410 176.891602,194.545807 
	C186.230591,202.797577 189.454620,216.081879 184.960388,227.792343 
	C180.487747,239.446548 169.183929,247.109589 156.636032,246.993896 
	C144.188553,246.879150 133.017563,238.908722 128.828720,227.095856 
	C128.219788,225.378662 127.834053,223.582306 127.272270,221.394058 
z"/>
<path fill="#03A8F3" opacity="1.000000" stroke="none" 
	d="
M361.392578,246.720612 
	C345.705658,247.708466 333.746521,240.479355 328.923004,227.425812 
	C324.371429,215.108200 328.150238,201.201004 338.586182,193.394135 
	C348.864227,185.705399 360.076508,184.593521 371.366943,190.799896 
	C382.648376,197.001297 388.008057,207.101700 386.767303,219.842361 
	C385.529083,232.557327 378.319427,241.214020 366.160248,245.513489 
	C364.755768,246.010086 363.269287,246.274734 361.392578,246.720612 
z"/>
</svg>