<svg version="1.1" id="Layer_1" xmlns="http://www.w3.org/2000/svg" xmlns:xlink="http://www.w3.org/1999/xlink" x="0px" y="0px"
	 width="100%" viewBox="0 0 512 512" enable-background="new 0 0 512 512" xml:space="preserve">
<path fill="#FFFFFF" opacity="1.000000" stroke="none" 
	d="
M1.000001,393.000000 
	C1.000000,262.376709 1.000000,131.753418 1.000000,1.065060 
	C171.566635,1.065060 342.133301,1.065060 513.000000,1.065060 
	C513.000000,131.356506 513.000000,261.713226 512.628235,392.376892 
	C511.979034,391.082153 511.879944,389.424469 511.397308,387.887238 
	C504.333801,365.388947 497.295929,342.882080 490.094391,320.427795 
	C483.283295,299.191010 475.794708,278.158356 469.504944,256.771027 
	C462.551025,233.125351 449.811829,213.719635 430.763123,198.196762 
	C411.567688,182.554352 389.369476,175.005096 365.000244,172.546417 
	C364.985046,170.421463 364.974792,168.721695 364.976837,166.614349 
	C364.321259,163.473618 363.653381,160.740494 362.853699,157.689621 
	C358.955505,150.236588 353.179108,146.861557 344.973724,146.938614 
	C324.993286,147.126266 305.009827,146.992188 285.019562,146.561523 
	C284.993469,144.428741 284.975433,142.722107 284.947205,140.681015 
	C284.295319,139.228485 283.653625,138.110413 283.003784,136.739349 
	C282.988220,136.317795 282.980835,136.149216 282.872681,135.764542 
	C282.576996,135.280518 282.320465,135.100372 281.846527,134.698334 
	C278.109039,132.920609 274.527313,131.452530 270.967590,129.517365 
	C271.029816,122.379768 271.069946,115.709282 271.571472,109.019165 
	C282.022736,108.944061 292.012665,108.888588 302.466125,108.905624 
	C312.954346,108.930397 322.979065,108.882660 333.467163,108.907257 
	C354.203033,108.986916 374.475647,109.043983 394.747803,108.974030 
	C401.654175,108.950203 406.622467,103.062988 407.096436,95.817703 
	C407.589355,88.283089 400.827545,81.963341 394.872375,81.994263 
	C381.582825,82.063286 368.293121,82.109657 354.539978,82.089584 
	C344.051575,82.064957 334.026703,82.116020 323.538452,82.091690 
	C312.051270,82.066948 301.027435,82.117584 289.540771,82.092026 
	C283.091492,81.996597 277.105103,81.977371 271.070587,81.495155 
	C270.626556,75.024490 270.230652,69.016815 269.911591,62.594936 
	C269.992554,61.348862 270.177338,60.469864 269.974426,59.691998 
	C264.018127,36.855789 244.857513,23.954359 221.920837,28.458035 
	C200.207947,32.721416 189.474045,48.587101 189.162292,69.277443 
	C189.014923,79.057335 192.754776,87.819885 199.596039,95.318581 
	C207.336700,103.803139 216.546860,108.505096 228.465424,108.903336 
	C233.581055,108.994774 238.236145,109.015778 242.938904,109.500763 
	C243.011368,116.637520 243.036163,123.310303 242.660446,129.990585 
	C238.839218,131.668076 235.418503,133.338058 231.782043,135.110275 
	C231.295227,135.404358 231.115311,135.660309 231.015472,136.233276 
	C230.998978,136.654922 230.993515,136.823624 230.721344,137.183685 
	C229.983978,138.588501 229.513351,139.801987 229.031631,141.442078 
	C229.004364,143.575043 228.988190,145.281403 228.505127,146.992081 
	C208.448074,146.998001 188.856354,147.145355 169.268509,146.934021 
	C160.670959,146.841278 154.695816,150.353226 150.860229,158.349731 
	C150.149185,161.468735 149.592316,164.245331 149.027130,167.446045 
	C149.010651,169.569962 149.002472,171.269791 148.563232,172.983521 
	C138.138092,175.007797 127.907448,176.244003 118.205223,179.209229 
	C103.505829,183.701736 90.174934,191.112961 78.640945,202.026062 
	C72.789963,208.372345 66.545158,214.105576 61.896149,220.926468 
	C56.792767,228.414017 53.159916,236.903839 48.560753,245.130951 
	C42.546349,263.074677 36.857498,280.844360 31.072250,298.955505 
	C25.372843,316.198456 19.769833,333.099976 14.087969,350.388855 
	C11.932554,357.371460 9.823200,363.956604 7.791428,370.565582 
	C6.522671,374.692596 5.370932,378.855621 3.992774,383.356323 
	C2.879248,386.806763 1.939625,389.903381 1.000001,393.000000 
z"/>
<path fill="#FFFFFF" opacity="1.000000" stroke="none" 
	d="
M513.000000,418.000000 
	C513.000000,449.646912 513.000000,481.293823 513.000000,512.940063 
	C342.333313,512.939453 171.666656,512.939453 1.000000,512.939453 
	C1.000000,481.565002 1.000000,450.251160 1.356914,418.598236 
	C1.864715,419.507019 2.015601,420.754852 2.099954,422.391418 
	C4.176475,428.843109 5.734818,435.196259 8.572147,440.914825 
	C17.101549,458.105621 29.939953,471.011780 47.655094,479.017395 
	C63.737904,486.285400 80.425819,487.830597 97.504562,484.681335 
	C115.016808,481.452087 129.056335,471.771790 141.915436,459.794617 
	C149.411667,452.812500 157.838959,446.813232 166.029053,440.611725 
	C167.204514,439.721649 169.504639,439.741425 171.111618,440.104462 
	C175.967575,441.201477 180.667908,443.379517 185.555847,443.869385 
	C200.213440,445.338348 213.708389,442.144073 225.360031,431.973938 
	C228.820251,427.908783 231.968185,423.974548 235.423721,419.900452 
	C236.833191,417.880341 237.935028,416.000092 239.489624,414.065063 
	C251.616302,414.044708 263.290222,414.079071 275.097290,414.434174 
	C277.447815,417.849030 279.665192,420.943146 281.939636,424.385742 
	C295.102448,442.614594 320.761597,449.467682 342.463135,440.089050 
	C344.757172,439.097656 346.341461,438.937653 348.552032,440.795471 
	C358.648102,449.280365 369.271240,457.150970 379.191864,465.828918 
	C395.547455,480.135834 414.309509,486.975647 436.438477,485.910919 
	C449.135010,485.569916 460.689178,482.747711 471.476929,476.018921 
	C477.934906,471.346313 484.030487,466.695465 490.437500,461.919708 
	C497.637756,454.346527 503.778259,446.393860 507.070404,436.633667 
	C509.153381,430.458344 511.030518,424.213593 513.000000,418.000000 
z"/>
<path fill="#44425A" opacity="1.000000" stroke="none" 
	d="
M513.000000,417.531372 
	C511.030518,424.213593 509.153381,430.458344 507.070404,436.633667 
	C503.778259,446.393860 497.637756,454.346527 490.075104,461.877625 
	C487.506012,460.682098 485.187286,459.750305 483.800415,458.055878 
	C480.555725,454.091492 477.793365,449.735535 474.773376,445.583496 
	C457.525757,421.871063 440.175934,398.232208 423.075378,374.414307 
	C419.883148,369.968140 417.665955,364.821930 415.193359,359.726685 
	C423.720367,352.673859 432.547211,346.399872 440.205688,338.928345 
	C445.040894,334.211151 448.130493,327.704651 452.309845,321.844482 
	C454.832916,317.267517 457.585602,313.030579 459.173950,308.394714 
	C466.617188,286.670929 470.607910,264.895233 459.658142,242.888321 
	C458.056854,239.670044 456.403625,239.103180 453.316711,238.886856 
	C449.620209,238.627808 445.467896,238.392456 442.432495,236.594498 
	C436.929657,233.335052 432.107513,228.926453 426.858917,224.701782 
	C424.811890,222.602493 422.907166,220.798996 420.862183,218.702728 
	C419.148499,216.938553 417.575043,215.467133 415.854065,213.693268 
	C411.805145,210.592667 407.903778,207.794510 403.800537,204.720047 
	C395.064331,201.299896 386.530060,198.156036 377.651245,194.978088 
	C376.205841,194.635178 375.104980,194.326340 373.669617,194.011230 
	C372.889038,194.007599 372.442963,194.010254 371.528931,194.009552 
	C365.287750,194.203033 359.315613,193.529617 353.786316,194.793564 
	C344.706573,196.869125 335.914093,200.201416 326.707184,202.705872 
	C324.609253,202.271957 322.804657,202.018250 320.999969,202.017288 
	C279.142578,201.994949 237.285141,202.027847 195.427872,201.956558 
	C191.284454,201.949509 187.142059,201.336685 182.631256,200.961792 
	C177.174347,199.282715 172.085403,197.646912 166.624542,195.846771 
	C163.809006,195.395309 161.296265,195.378372 158.933701,194.774170 
	C148.863068,192.198685 138.976334,193.669098 129.331680,196.489182 
	C122.720665,198.422241 116.433235,201.461929 109.708321,203.708374 
	C100.965408,203.273239 92.513763,203.192322 84.066566,202.953613 
	C82.352585,202.905182 80.655426,202.261612 78.950508,201.892426 
	C90.174934,191.112961 103.505829,183.701736 118.205223,179.209229 
	C127.907448,176.244003 138.138092,175.007797 148.859344,173.282990 
	C150.240158,173.660507 150.893753,173.832977 151.547363,173.833008 
	C221.464584,173.835739 291.381805,173.829880 361.299011,173.780960 
	C362.534607,173.780090 363.769836,173.253113 365.005219,172.971619 
	C389.369476,175.005096 411.567688,182.554352 430.763123,198.196762 
	C449.811829,213.719635 462.551025,233.125351 469.504944,256.771027 
	C475.794708,278.158356 483.283295,299.191010 490.094391,320.427795 
	C497.295929,342.882080 504.333801,365.388947 511.397308,387.887238 
	C511.879944,389.424469 511.979034,391.082153 512.628235,392.841919 
	C513.000000,401.020905 513.000000,409.041809 513.000000,417.531372 
z"/>
<path fill="#333653" opacity="1.000000" stroke="none" 
	d="
M2.166487,422.002716 
	C2.015601,420.754852 1.864715,419.507019 1.356914,418.129578 
	C1.000000,409.979095 1.000000,401.958191 1.000001,393.468628 
	C1.939625,389.903381 2.879248,386.806763 4.450638,383.355530 
	C20.871914,383.000580 36.661625,383.036530 52.450642,382.948212 
	C54.174099,382.938599 56.481075,382.779816 57.506634,381.715881 
	C60.814777,378.284058 63.608761,374.361725 66.690056,370.703491 
	C67.816971,369.365570 68.996490,367.591461 70.493057,367.135406 
	C74.982300,365.767242 77.634315,362.566071 80.016518,358.931763 
	C83.013954,354.358856 87.426308,353.468231 92.278221,355.754333 
	C100.648163,359.698059 109.213707,363.225342 117.662643,367.004547 
	C118.559799,367.405853 119.226814,368.321686 119.560905,368.999329 
	C113.120972,368.536285 106.468712,366.295868 103.732315,374.704437 
	C103.603065,375.101593 102.928421,375.288818 102.617889,375.664795 
	C100.887276,377.760040 99.312302,379.998901 97.446877,381.963348 
	C95.718285,383.783630 93.808014,386.533630 91.771889,386.729004 
	C87.593376,387.129974 86.083725,389.314545 84.908142,392.711304 
	C83.409752,397.040771 80.505951,399.894135 75.871605,401.108978 
	C73.920990,401.620331 71.226646,402.777283 70.626587,404.322662 
	C68.605034,409.528748 64.140793,410.451172 59.761482,411.965912 
	C58.209934,412.502563 56.839039,413.723267 55.548164,414.822510 
	C51.039974,418.661316 47.017612,422.541931 40.048100,422.183624 
	C27.451099,421.535919 14.796839,422.001801 2.166487,422.002716 
z"/>
<path fill="#383A55" opacity="1.000000" stroke="none" 
	d="
M14.166824,350.001465 
	C19.769833,333.099976 25.372843,316.198456 31.591215,299.061584 
	C44.659237,298.883850 57.115685,299.105927 69.560440,298.819641 
	C71.402145,298.777283 73.188599,296.332947 75.273438,295.223022 
	C78.484505,301.173859 81.120872,307.085266 84.458427,312.570038 
	C87.036339,316.806458 89.715050,316.744843 93.258102,313.231171 
	C98.226990,308.303497 103.154305,303.333893 108.110199,298.393066 
	C112.653709,293.863342 115.154137,293.860565 119.831039,298.329712 
	C124.912506,303.185425 129.985840,308.083435 137.958710,304.445496 
	C138.257690,308.191956 138.475586,311.489258 138.300476,314.825806 
	C136.371033,313.962677 134.804840,313.106934 133.303909,312.148987 
	C129.169449,309.510162 125.596581,309.064697 121.944687,313.400177 
	C118.201294,317.844269 114.058426,322.054749 109.578323,325.745972 
	C105.267525,329.297699 104.665802,332.702606 107.680504,337.043243 
	C107.207489,337.847107 106.659439,338.894135 106.967834,339.317871 
	C108.617744,341.584747 110.585350,343.621216 112.223312,345.895660 
	C112.945572,346.898529 113.723877,348.464996 113.408195,349.423767 
	C113.147331,350.216064 111.320053,350.914856 110.177856,350.928986 
	C99.462730,351.061737 88.581520,352.086639 79.543465,344.159546 
	C76.749985,341.709412 74.328613,342.767365 72.285828,346.061920 
	C71.151176,347.891876 68.652740,350.021790 66.743027,350.046936 
	C49.220867,350.277771 31.693016,350.076660 14.166824,350.001465 
z"/>
<path fill="#44425A" opacity="1.000000" stroke="none" 
	d="
M228.004868,108.832909 
	C216.546860,108.505096 207.336700,103.803139 199.596039,95.318581 
	C192.754776,87.819885 189.014923,79.057335 189.162292,69.277443 
	C189.474045,48.587101 200.207947,32.721416 221.920837,28.458035 
	C244.857513,23.954359 264.018127,36.855789 269.974426,59.691998 
	C270.177338,60.469864 269.992554,61.348862 269.541748,62.598976 
	C267.707947,63.522945 266.291962,63.961704 264.938568,64.545532 
	C257.672699,67.679871 250.422379,70.850327 243.089676,73.564453 
	C243.007828,71.293907 243.050201,69.465675 242.990158,67.640808 
	C242.705582,58.988770 232.595108,53.980724 227.715729,55.164547 
	C221.633453,56.640209 217.009796,62.573429 216.998993,68.469299 
	C216.987167,74.924553 220.754822,79.546989 228.224426,80.959961 
	C233.003677,81.864021 237.991562,81.665146 243.296951,81.972717 
	C244.804337,81.990616 245.900711,81.996529 247.031494,82.350830 
	C246.354019,84.989105 246.261856,87.825302 244.814682,89.467041 
	C240.370316,94.508896 235.323868,99.014740 230.700134,103.907249 
	C229.456635,105.223030 228.884949,107.173683 228.004868,108.832909 
z"/>
<path fill="#363854" opacity="1.000000" stroke="none" 
	d="
M14.087969,350.388855 
	C31.693016,350.076660 49.220867,350.277771 66.743027,350.046936 
	C68.652740,350.021790 71.151176,347.891876 72.285828,346.061920 
	C74.328613,342.767365 76.749985,341.709412 79.543465,344.159546 
	C88.581520,352.086639 99.462730,351.061737 110.177856,350.928986 
	C111.320053,350.914856 113.147331,350.216064 113.408195,349.423767 
	C113.723877,348.464996 112.945572,346.898529 112.223312,345.895660 
	C110.585350,343.621216 108.617744,341.584747 106.967834,339.317871 
	C106.659439,338.894135 107.207489,337.847107 107.998718,337.183167 
	C116.426186,340.517487 124.215233,343.756287 132.436584,346.996307 
	C144.098663,347.491760 155.328445,347.986023 165.004639,348.411896 
	C160.553940,353.331390 155.276047,359.165192 149.748795,364.999298 
	C149.499420,364.999573 149.000610,365.000000 148.747681,364.786407 
	C149.245483,362.004120 149.996231,359.435425 151.000397,355.999634 
	C146.017105,355.999634 141.452286,356.118134 136.899887,355.932495 
	C135.395599,355.871155 132.703659,355.166351 132.628540,354.516144 
	C132.006424,349.131165 127.911865,350.116089 123.966034,350.011353 
	C124.906982,352.466125 126.023048,355.135742 128.021759,356.338348 
	C134.068924,359.976654 136.180771,365.538910 136.666260,371.998901 
	C135.888962,371.998962 135.444778,371.998871 134.956177,371.674133 
	C133.941147,371.233002 132.970581,371.116516 131.600067,371.000000 
	C130.133621,370.999603 129.067123,370.999176 127.944199,370.652222 
	C125.925186,369.870453 123.962593,369.435211 121.666763,369.000000 
	C120.889221,368.999603 120.444916,368.999176 120.000610,368.998779 
	C119.226814,368.321686 118.559799,367.405853 117.662643,367.004547 
	C109.213707,363.225342 100.648163,359.698059 92.278221,355.754333 
	C87.426308,353.468231 83.013954,354.358856 80.016518,358.931763 
	C77.634315,362.566071 74.982300,365.767242 70.493057,367.135406 
	C68.996490,367.591461 67.816971,369.365570 66.690056,370.703491 
	C63.608761,374.361725 60.814777,378.284058 57.506634,381.715881 
	C56.481075,382.779816 54.174099,382.938599 52.450642,382.948212 
	C36.661625,383.036530 20.871914,383.000580 4.624541,383.001709 
	C5.370932,378.855621 6.522671,374.692596 7.791428,370.565582 
	C9.823200,363.956604 11.932554,357.371460 14.087969,350.388855 
z"/>
<path fill="#EAF6FF" opacity="1.000000" stroke="none" 
	d="
M285.027588,146.987671 
	C305.009827,146.992188 324.993286,147.126266 344.973724,146.938614 
	C353.179108,146.861557 358.955505,150.236588 362.439819,157.740601 
	C359.870728,158.406189 357.583893,158.960815 355.296692,158.962448 
	C289.820740,159.008957 224.344727,159.011398 158.868774,158.957977 
	C156.250397,158.955841 153.632523,158.338181 151.014404,158.007324 
	C154.695816,150.353226 160.670959,146.841278 169.268509,146.934021 
	C188.856354,147.145355 208.448074,146.998001 228.804398,147.287994 
	C230.212982,147.713440 230.855209,147.963226 231.497818,147.964157 
	C248.115097,147.988022 264.732483,148.007126 281.349548,147.945297 
	C282.576721,147.940735 283.801636,147.321259 285.027588,146.987671 
z"/>
<path fill="#3D3D57" opacity="1.000000" stroke="none" 
	d="
M75.000610,294.999908 
	C73.188599,296.332947 71.402145,298.777283 69.560440,298.819641 
	C57.115685,299.105927 44.659237,298.883850 31.687611,298.720154 
	C36.857498,280.844360 42.546349,263.074677 49.036678,245.143829 
	C53.796379,244.988449 57.758434,245.107071 61.711899,244.972733 
	C67.237610,244.785019 73.568581,246.990036 77.058609,240.173553 
	C77.147217,240.000488 77.678345,240.053986 77.961319,240.377686 
	C76.838783,244.034286 75.626564,247.278397 74.700706,250.602280 
	C71.248276,262.996674 70.734093,275.468719 74.000320,288.399109 
	C74.333763,290.865417 74.667183,292.932678 75.000610,294.999908 
z"/>
<path fill="#E2F2FF" opacity="1.000000" stroke="none" 
	d="
M150.860229,158.349716 
	C153.632523,158.338181 156.250397,158.955841 158.868774,158.957977 
	C224.344727,159.011398 289.820740,159.008957 355.296692,158.962448 
	C357.583893,158.960815 359.870728,158.406189 362.571594,158.058334 
	C363.653381,160.740494 364.321259,163.473618 364.512207,166.607315 
	C292.368652,167.012573 220.702042,167.017258 149.035431,167.021942 
	C149.592316,164.245331 150.149185,161.468735 150.860229,158.349716 
z"/>
<path fill="#2E3351" opacity="1.000000" stroke="none" 
	d="
M355.003479,82.165260 
	C368.293121,82.109657 381.582825,82.063286 394.872375,81.994263 
	C400.827545,81.963341 407.589355,88.283089 407.096436,95.817703 
	C406.622467,103.062988 401.654175,108.950203 394.747803,108.974030 
	C374.475647,109.043983 354.203033,108.986916 333.471252,108.552551 
	C333.593781,106.999046 333.961548,105.674232 334.791931,104.778015 
	C340.590363,98.519554 346.514221,92.377373 352.321259,86.126755 
	C353.393890,84.972153 354.118317,83.494049 355.003479,82.165260 
z"/>
<path fill="#D4E6F9" opacity="1.000000" stroke="none" 
	d="
M149.027130,167.446045 
	C220.702042,167.017258 292.368652,167.012573 364.499878,167.014923 
	C364.974792,168.721695 364.985046,170.421463 365.000244,172.546417 
	C363.769836,173.253113 362.534607,173.780090 361.299011,173.780960 
	C291.381805,173.829880 221.464584,173.835739 151.547363,173.833008 
	C150.893753,173.832977 150.240158,173.660507 149.290436,173.269073 
	C149.002472,171.269791 149.010651,169.569962 149.027130,167.446045 
z"/>
<path fill="#434159" opacity="1.000000" stroke="none" 
	d="
M78.003098,240.001831 
	C77.678345,240.053986 77.147217,240.000488 77.058609,240.173553 
	C73.568581,246.990036 67.237610,244.785019 61.711899,244.972733 
	C57.758434,245.107071 53.796379,244.988449 49.362228,244.969788 
	C53.159916,236.903839 56.792767,228.414017 61.896149,220.926468 
	C66.545158,214.105576 72.789963,208.372345 78.640945,202.026062 
	C80.655426,202.261612 82.352585,202.905182 84.066566,202.953613 
	C92.513763,203.192322 100.965408,203.273239 109.515457,203.980072 
	C104.523247,208.749680 98.747093,212.360001 94.502151,217.289032 
	C88.416519,224.355331 83.448357,232.384033 78.003098,240.001831 
z"/>
<path fill="#3D3D57" opacity="1.000000" stroke="none" 
	d="
M228.465424,108.903336 
	C228.884949,107.173683 229.456635,105.223030 230.700134,103.907249 
	C235.323868,99.014740 240.370316,94.508896 244.814682,89.467041 
	C246.261856,87.825302 246.354019,84.989105 247.500458,82.349724 
	C255.662888,81.986206 263.390808,81.972183 271.118713,81.958153 
	C277.105103,81.977371 283.091492,81.996597 289.498047,82.425171 
	C286.184021,86.817902 282.542114,90.893105 278.692291,94.761421 
	C273.882233,99.594612 268.901154,104.257584 263.525970,108.994949 
	C256.335754,109.009506 249.613495,109.023148 242.891220,109.036781 
	C238.236145,109.015778 233.581055,108.994774 228.465424,108.903336 
z"/>
<path fill="#363855" opacity="1.000000" stroke="none" 
	d="
M263.993896,108.994041 
	C268.901154,104.257584 273.882233,99.594612 278.692291,94.761421 
	C282.542114,90.893105 286.184021,86.817902 289.960938,82.501373 
	C301.027435,82.117584 312.051270,82.066948 323.495789,82.426712 
	C317.900330,89.435455 311.815704,95.973450 305.913452,102.672157 
	C304.325073,104.474892 303.291077,106.766121 302.002563,108.833115 
	C292.012665,108.888588 282.022736,108.944061 271.126282,109.007858 
	C268.144440,109.008789 266.069153,109.001419 263.993896,108.994041 
z"/>
<path fill="#333653" opacity="1.000000" stroke="none" 
	d="
M302.466125,108.905624 
	C303.291077,106.766121 304.325073,104.474892 305.913452,102.672157 
	C311.815704,95.973450 317.900330,89.435455 323.959167,82.502098 
	C334.026703,82.116020 344.051575,82.064957 354.539978,82.089584 
	C354.118317,83.494049 353.393890,84.972153 352.321259,86.126755 
	C346.514221,92.377373 340.590363,98.519554 334.791931,104.778015 
	C333.961548,105.674232 333.593781,106.999046 333.007812,108.480217 
	C322.979065,108.882660 312.954346,108.930397 302.466125,108.905624 
z"/>
<path fill="#333653" opacity="1.000000" stroke="none" 
	d="
M263.525970,108.994949 
	C266.069153,109.001419 268.144440,109.008789 270.664886,109.027481 
	C271.069946,115.709282 271.029816,122.379768 270.509888,129.610535 
	C261.040375,130.108231 252.050674,130.045654 243.060959,129.983078 
	C243.036163,123.310303 243.011368,116.637520 242.938904,109.500763 
	C249.613495,109.023148 256.335754,109.009506 263.525970,108.994949 
z"/>
<path fill="#CFE7FF" opacity="1.000000" stroke="none" 
	d="
M285.019562,146.561523 
	C283.801636,147.321259 282.576721,147.940735 281.349548,147.945297 
	C264.732483,148.007126 248.115097,147.988022 231.497818,147.964157 
	C230.855209,147.963226 230.212982,147.713440 229.271301,147.283691 
	C228.988190,145.281403 229.004364,143.575043 229.495560,141.436768 
	C248.299515,141.008392 266.628448,141.011932 284.957367,141.015472 
	C284.975433,142.722107 284.993469,144.428741 285.019562,146.561523 
z"/>
<path fill="#383A55" opacity="1.000000" stroke="none" 
	d="
M271.070587,81.495155 
	C263.390808,81.972183 255.662888,81.986206 247.466034,82.001343 
	C245.900711,81.996529 244.804337,81.990616 243.348190,81.533630 
	C243.047836,78.724472 243.107269,76.366394 243.166702,74.008316 
	C250.422379,70.850327 257.672699,67.679871 264.938568,64.545532 
	C266.291962,63.961704 267.707947,63.522945 269.464905,63.013191 
	C270.230652,69.016815 270.626556,75.024490 271.070587,81.495155 
z"/>
<path fill="#E6F2FD" opacity="1.000000" stroke="none" 
	d="
M242.660446,129.990585 
	C252.050674,130.045654 261.040375,130.108231 270.487823,130.077637 
	C274.527313,131.452530 278.109039,132.920609 281.951385,134.911850 
	C282.403687,135.703552 282.657501,135.885437 282.973419,135.980637 
	C282.980835,136.149216 282.988220,136.317795 282.533783,136.742401 
	C265.043976,136.996399 248.016022,136.994370 230.988052,136.992340 
	C230.993515,136.823624 230.998978,136.654922 231.228973,136.129669 
	C231.717987,135.577164 231.899399,135.322128 231.997787,135.008026 
	C235.418503,133.338058 238.839218,131.668076 242.660446,129.990585 
z"/>
<path fill="#DAEDFE" opacity="1.000000" stroke="none" 
	d="
M230.721344,137.183685 
	C248.016022,136.994370 265.043976,136.996399 282.541931,136.995392 
	C283.653625,138.110413 284.295319,139.228485 284.947205,140.681015 
	C266.628448,141.011932 248.299515,141.008392 229.506653,141.010162 
	C229.513351,139.801987 229.983978,138.588501 230.721344,137.183685 
z"/>
<path fill="#DAEDFE" opacity="1.000000" stroke="none" 
	d="
M231.782043,135.110260 
	C231.899399,135.322128 231.717987,135.577164 231.240036,135.876709 
	C231.115311,135.660309 231.295227,135.404358 231.782043,135.110260 
z"/>
<path fill="#DAEDFE" opacity="1.000000" stroke="none" 
	d="
M282.872681,135.764542 
	C282.657501,135.885437 282.403687,135.703552 282.107117,135.221497 
	C282.320465,135.100372 282.576996,135.280518 282.872681,135.764542 
z"/>
<path fill="#2E3351" opacity="1.000000" stroke="none" 
	d="
M119.560913,368.999329 
	C120.444916,368.999176 120.889221,368.999603 121.895287,369.270691 
	C124.304901,370.027191 126.152756,370.513000 128.000610,370.998779 
	C129.067123,370.999176 130.133621,370.999603 131.805267,371.262909 
	C133.273804,371.683472 134.137207,371.841125 135.000610,371.998779 
	C135.444778,371.998871 135.888962,371.998962 137.043427,372.041992 
	C139.837204,372.725006 141.920700,373.365112 143.996201,374.400330 
	C143.325653,378.196930 142.663101,381.598480 141.703461,385.292999 
	C141.748138,392.326416 141.214828,399.255920 142.621384,405.766296 
	C145.217361,417.781982 153.500992,422.446167 164.348694,419.017090 
	C174.576172,428.795471 186.747238,431.130005 200.253387,430.268127 
	C206.996338,430.703674 213.484604,430.784851 219.965668,431.045227 
	C221.671127,431.113739 223.354324,431.736572 225.047745,432.104858 
	C213.708389,442.144073 200.213440,445.338348 185.555847,443.869385 
	C180.667908,443.379517 175.967575,441.201477 171.111618,440.104462 
	C169.504639,439.741425 167.204514,439.721649 166.029053,440.611725 
	C157.838959,446.813232 149.411667,452.812500 141.915436,459.794617 
	C129.056335,471.771790 115.016808,481.452087 97.504562,484.681335 
	C80.425819,487.830597 63.737904,486.285400 47.655094,479.017395 
	C29.939953,471.011780 17.101549,458.105621 8.572147,440.914825 
	C5.734818,435.196259 4.176475,428.843109 2.099955,422.391418 
	C14.796839,422.001801 27.451099,421.535919 40.048100,422.183624 
	C47.017612,422.541931 51.039974,418.661316 55.548164,414.822510 
	C56.839039,413.723267 58.209934,412.502563 59.761482,411.965912 
	C64.140793,410.451172 68.605034,409.528748 70.626587,404.322662 
	C71.226646,402.777283 73.920990,401.620331 75.871605,401.108978 
	C80.505951,399.894135 83.409752,397.040771 84.908142,392.711304 
	C86.083725,389.314545 87.593376,387.129974 91.771889,386.729004 
	C93.808014,386.533630 95.718285,383.783630 97.446877,381.963348 
	C99.312302,379.998901 100.887276,377.760040 102.617889,375.664795 
	C102.928421,375.288818 103.603065,375.101593 103.732315,374.704437 
	C106.468712,366.295868 113.120972,368.536285 119.560913,368.999329 
z"/>
<path fill="#363855" opacity="1.000000" stroke="none" 
	d="
M452.003113,322.000732 
	C448.130493,327.704651 445.040894,334.211151 440.205688,338.928345 
	C432.547211,346.399872 423.720367,352.673859 414.833496,359.763306 
	C407.460510,363.073639 400.611847,366.009247 393.833008,369.098022 
	C388.520111,371.518799 388.273010,372.430145 391.505127,377.108673 
	C394.142120,380.925781 396.833130,384.714386 399.678375,388.377228 
	C410.140015,401.845032 420.693085,415.241791 431.176849,428.692444 
	C436.869995,435.996674 443.259674,442.906677 447.901520,450.833984 
	C451.527374,457.026245 454.233734,463.705200 458.581543,469.627655 
	C461.925751,474.183014 465.236694,477.187836 471.114563,476.040710 
	C460.689178,482.747711 449.135010,485.569916 436.394897,485.574890 
	C435.418549,484.523468 434.926941,483.886505 434.440796,483.245361 
	C428.779968,475.780060 422.613190,468.636414 417.602722,460.757416 
	C412.622620,452.926208 409.261871,444.071411 404.355286,436.185486 
	C398.954315,427.504944 392.517761,419.474060 386.724701,411.028168 
	C385.385193,409.075287 384.961548,406.519196 383.881317,404.358215 
	C381.700104,399.994751 379.931183,395.219147 375.517151,393.180176 
	C373.306000,399.647186 371.726257,405.703491 369.182953,411.323730 
	C366.336121,417.614624 363.458313,418.299042 357.332367,415.750031 
	C356.009155,415.199432 354.444214,415.229858 353.028564,414.635010 
	C353.789398,412.677795 354.892029,411.126190 355.102325,409.461853 
	C355.243622,408.343597 354.121674,407.065704 353.651215,405.461761 
	C355.925232,397.733795 357.256470,390.393646 353.995728,382.628662 
	C351.487976,378.110687 348.971100,373.965546 346.288208,369.516541 
	C341.744843,366.541901 337.367523,363.871155 332.628754,361.040222 
	C320.781067,357.212585 310.360718,359.396545 300.943970,366.713806 
	C292.389130,373.361328 288.818359,382.511719 287.659790,393.062103 
	C286.654907,395.308746 285.223663,397.622284 285.549988,399.653473 
	C286.171143,403.520050 287.796417,407.225311 288.594971,410.947205 
	C283.123444,409.597870 278.061707,408.298920 272.992065,406.597137 
	C272.655701,403.797150 272.327240,401.400024 271.989746,398.583710 
	C272.321320,392.442596 272.661896,386.720703 273.377563,381.040283 
	C280.088989,383.763824 282.838745,383.421234 286.116364,379.275330 
	C287.754364,377.203400 289.144287,374.934448 290.632965,372.745453 
	C298.378967,361.355469 309.295197,354.992096 322.898926,355.406250 
	C336.984161,355.835083 348.158112,362.539368 355.145477,375.273590 
	C357.227142,379.067322 359.923981,381.834351 364.616791,382.433655 
	C368.990417,382.992218 371.933990,380.259674 370.050446,376.229736 
	C367.548645,370.876862 364.838684,365.401337 361.103394,360.904541 
	C357.069214,356.047943 351.749817,352.258972 347.240967,347.724304 
	C350.328064,347.628296 353.165253,347.812317 356.402191,347.997009 
	C357.867950,347.998444 358.933990,347.999237 360.231476,348.272766 
	C361.643005,348.695374 362.823059,348.845245 364.428894,348.994476 
	C367.127869,348.662750 369.391113,348.165955 371.675995,348.027924 
	C385.400757,347.198914 397.876038,342.614044 408.786957,334.492462 
	C415.326477,329.624695 420.957947,323.536957 427.390869,317.952087 
	C433.678131,317.937775 439.585144,318.216522 445.460999,317.905823 
	C448.910889,317.723450 450.993866,318.755707 452.003113,322.000732 
z"/>
<path fill="#2F3352" opacity="1.000000" stroke="none" 
	d="
M352.990601,414.992645 
	C354.444214,415.229858 356.009155,415.199432 357.332367,415.750031 
	C363.458313,418.299042 366.336121,417.614624 369.182953,411.323730 
	C371.726257,405.703491 373.306000,399.647186 375.517151,393.180176 
	C379.931183,395.219147 381.700104,399.994751 383.881317,404.358215 
	C384.961548,406.519196 385.385193,409.075287 386.724701,411.028168 
	C392.517761,419.474060 398.954315,427.504944 404.355286,436.185486 
	C409.261871,444.071411 412.622620,452.926208 417.602722,460.757416 
	C422.613190,468.636414 428.779968,475.780060 434.440796,483.245361 
	C434.926941,483.886505 435.418549,484.523468 435.951233,485.498413 
	C414.309509,486.975647 395.547455,480.135834 379.191864,465.828918 
	C369.271240,457.150970 358.648102,449.280365 348.552032,440.795471 
	C346.341461,438.937653 344.757172,439.097656 342.463135,440.089050 
	C320.761597,449.467682 295.102448,442.614594 282.414551,424.374695 
	C288.222137,423.673004 293.611877,423.330841 299.321472,423.130920 
	C301.411713,424.181213 303.177429,425.098572 304.953339,425.995758 
	C316.326752,431.741547 327.872803,432.073212 338.993286,425.845947 
	C344.087524,422.993256 348.350586,418.656433 352.990601,414.992645 
z"/>
<path fill="#3D3D57" opacity="1.000000" stroke="none" 
	d="
M471.476929,476.018921 
	C465.236694,477.187836 461.925751,474.183014 458.581543,469.627655 
	C454.233734,463.705200 451.527374,457.026245 447.901520,450.833984 
	C443.259674,442.906677 436.869995,435.996674 431.176849,428.692444 
	C420.693085,415.241791 410.140015,401.845032 399.678375,388.377228 
	C396.833130,384.714386 394.142120,380.925781 391.505127,377.108673 
	C388.273010,372.430145 388.520111,371.518799 393.833008,369.098022 
	C400.611847,366.009247 407.460510,363.073639 414.638916,360.035400 
	C417.665955,364.821930 419.883148,369.968140 423.075378,374.414307 
	C440.175934,398.232208 457.525757,421.871063 474.773376,445.583496 
	C477.793365,449.735535 480.555725,454.091492 483.800415,458.055878 
	C485.187286,459.750305 487.506012,460.682098 489.763672,462.002533 
	C484.030487,466.695465 477.934906,471.346313 471.476929,476.018921 
z"/>
<path fill="#2F3352" opacity="1.000000" stroke="none" 
	d="
M271.998779,399.002899 
	C272.327240,401.400024 272.655701,403.797150 273.030701,406.965179 
	C273.706207,409.861877 274.335175,411.987640 274.964142,414.113434 
	C263.290222,414.079071 251.616302,414.044708 239.484863,413.664734 
	C240.350739,407.545685 241.674164,401.772247 242.998291,395.545959 
	C242.336624,389.725769 241.845825,384.327850 240.900024,379.010895 
	C240.639923,377.548645 239.020233,376.328247 238.019852,374.616516 
	C237.345398,372.158234 236.675491,370.080353 236.370605,368.005737 
	C241.559128,371.908234 246.256470,375.978668 251.244843,379.654083 
	C255.453079,382.754730 260.072021,385.292877 264.357025,388.296997 
	C265.904449,389.381836 267.183746,390.977295 268.273224,392.555298 
	C269.678955,394.591370 270.771393,396.843719 271.998779,399.002899 
z"/>
<path fill="#363854" opacity="1.000000" stroke="none" 
	d="
M242.997559,395.998779 
	C241.674164,401.772247 240.350739,407.545685 239.032104,413.719482 
	C237.935028,416.000092 236.833191,417.880341 235.017395,419.888550 
	C232.317780,419.451630 230.311829,418.948486 228.351883,418.305206 
	C226.208542,417.601715 224.107727,416.768646 222.029190,415.627716 
	C222.381958,413.842773 222.693924,412.422150 223.355011,410.947235 
	C225.832291,405.964478 228.111221,401.094116 230.040512,396.088989 
	C231.555923,392.157532 230.005127,390.002533 225.492737,389.782288 
	C224.490997,382.406494 222.287842,375.981018 216.926361,370.601257 
	C213.542419,367.890259 210.268311,365.495667 206.727325,362.848236 
	C202.674591,361.614349 198.888687,360.633301 194.748993,359.475403 
	C181.743851,358.376587 172.012955,363.835449 163.937225,372.865906 
	C163.541245,371.699066 163.269394,370.848297 163.123291,369.703064 
	C163.500351,368.606537 163.751694,367.804504 164.305725,366.854523 
	C173.137268,359.165558 182.740814,355.131104 194.475357,355.881622 
	C207.732269,356.729431 217.073776,363.211914 224.005188,374.366180 
	C227.054535,379.934998 230.345886,385.010559 233.068314,390.374847 
	C235.244720,394.663300 238.375961,396.438019 242.997559,395.998779 
z"/>
<path fill="#2F3352" opacity="1.000000" stroke="none" 
	d="
M221.988388,415.992035 
	C224.107727,416.768646 226.208542,417.601715 228.351883,418.305206 
	C230.311829,418.948486 232.317780,419.451630 234.709778,420.028442 
	C231.968185,423.974548 228.820251,427.908783 225.360031,431.973938 
	C223.354324,431.736572 221.671127,431.113739 219.965668,431.045227 
	C213.484604,430.784851 206.996338,430.703674 200.481430,429.996735 
	C209.016830,427.175903 215.805542,422.069183 221.988388,415.992035 
z"/>
<path fill="#333653" opacity="1.000000" stroke="none" 
	d="
M275.097290,414.434174 
	C274.335175,411.987640 273.706207,409.861877 273.038635,407.368042 
	C278.061707,408.298920 283.123444,409.597870 288.865448,411.140320 
	C292.697723,415.252075 295.849701,419.120361 299.001648,422.988647 
	C293.611877,423.330841 288.222137,423.673004 282.357483,424.026215 
	C279.665192,420.943146 277.447815,417.849030 275.097290,414.434174 
z"/>
<path fill="#2E3351" opacity="1.000000" stroke="none" 
	d="
M77.961319,240.377686 
	C83.448357,232.384033 88.416519,224.355331 94.502151,217.289032 
	C98.747093,212.360001 104.523247,208.749680 109.808289,204.278610 
	C116.433235,201.461929 122.720665,198.422241 129.331680,196.489182 
	C138.976334,193.669098 148.863068,192.198685 158.933701,194.774170 
	C161.296265,195.378372 163.809006,195.395309 166.625397,196.233917 
	C165.794922,199.227417 165.087387,202.141022 163.296295,204.023788 
	C157.751083,209.852753 151.793411,215.289352 145.697021,221.048721 
	C142.939270,224.479584 140.480347,227.740021 137.675262,231.033203 
	C127.987579,240.215317 118.640739,249.359314 109.328835,258.538727 
	C109.035080,258.828308 109.101074,259.482849 108.678513,260.135498 
	C102.568642,261.560638 99.428139,265.266388 98.141052,271.001892 
	C96.472382,271.906708 94.970940,272.631317 93.830208,273.730316 
	C89.648933,277.758789 85.552086,281.877014 81.495552,286.031860 
	C79.348984,288.230438 77.036926,289.388550 74.000305,288.000000 
	C70.734093,275.468719 71.248276,262.996674 74.700706,250.602280 
	C75.626564,247.278397 76.838783,244.034286 77.961319,240.377686 
z"/>
<path fill="#383A55" opacity="1.000000" stroke="none" 
	d="
M416.001587,213.995697 
	C417.575043,215.467133 419.148499,216.938553 420.856628,219.073822 
	C419.451111,222.201538 418.309296,225.061707 416.311249,227.070099 
	C383.948334,259.600739 351.501892,292.048523 318.983032,324.423309 
	C316.334686,327.059967 314.827637,329.700256 318.029694,332.292938 
	C321.696167,335.261627 325.982819,337.464447 330.125153,340.294556 
	C330.499786,341.391113 330.749298,342.193115 330.584076,342.943695 
	C328.397522,342.594940 326.635254,342.126221 324.852417,342.027313 
	C310.228729,341.215851 297.911713,346.719971 286.997986,355.578430 
	C287.268799,351.321716 284.481323,352.014008 282.257233,352.011230 
	C265.816498,351.990540 249.375748,352.012421 232.935028,351.994415 
	C225.393402,351.986145 224.966187,351.209076 228.571213,344.545959 
	C228.843735,344.042236 228.708237,343.317780 228.880615,341.339264 
	C221.307312,340.212708 213.888779,339.109161 206.477890,338.006775 
	C206.994064,330.719818 204.403641,329.917053 198.988632,331.958496 
	C198.695007,332.069183 198.329681,331.989746 198.142563,331.699402 
	C204.858047,323.599976 211.428726,315.799988 218.386551,307.956055 
	C222.809937,307.274750 226.831650,306.231140 230.885513,306.086029 
	C238.902161,305.799103 238.973450,306.114136 235.209549,313.047211 
	C235.077988,313.289551 235.235718,313.688934 235.265884,314.118652 
	C239.096283,318.154541 244.143051,316.762299 248.827621,317.000305 
	C254.704468,317.298981 256.354340,319.193085 254.663696,324.434998 
	C253.492584,328.065979 255.006729,328.873840 258.152283,329.028168 
	C262.437469,329.238403 266.712006,329.665771 271.202698,330.291626 
	C273.606750,336.524384 278.742828,334.755341 283.069000,334.972504 
	C287.629303,335.201416 290.929871,333.298920 293.037567,328.905579 
	C297.878540,328.942535 302.227112,328.942535 307.425720,328.942535 
	C305.664703,324.986359 304.332367,321.993164 303.306702,319.149780 
	C306.613983,321.056488 308.762573,324.950653 313.185455,320.485901 
	C346.464600,286.891663 379.996033,253.547379 413.337158,220.014175 
	C414.781738,218.561279 415.138214,216.026505 416.001587,213.995697 
M224.982651,321.155518 
	C221.127960,323.002380 219.901154,326.189758 222.112213,329.614868 
	C223.482376,331.737366 226.135132,333.512665 228.583023,334.321625 
	C230.966965,335.109467 233.843643,334.670593 236.467407,334.406738 
	C240.397629,334.011505 242.863708,331.951691 243.019165,327.694061 
	C243.185196,323.146606 240.398636,320.812592 236.521530,320.335663 
	C233.001221,319.902649 229.338623,320.626343 224.982651,321.155518 
z"/>
<path fill="#434159" opacity="1.000000" stroke="none" 
	d="
M182.999191,201.005035 
	C187.142059,201.336685 191.284454,201.949509 195.427872,201.956558 
	C237.285141,202.027847 279.142578,201.994949 320.999969,202.017288 
	C322.804657,202.018250 324.609253,202.271957 326.509857,202.979218 
	C315.302704,209.754120 306.833984,219.031326 298.536407,229.001862 
	C276.311981,229.000519 254.556488,229.066849 232.801926,228.954269 
	C227.199783,228.925278 221.600555,228.333328 215.701584,227.856247 
	C212.935852,225.474594 210.468536,223.236694 207.856201,220.699493 
	C202.474533,215.932800 197.237885,211.465393 191.806152,206.725067 
	C188.740433,204.636444 185.869812,202.820740 182.999191,201.005035 
z"/>
<path fill="#3C3C57" opacity="1.000000" stroke="none" 
	d="
M452.309845,321.844482 
	C450.993866,318.755707 448.910889,317.723450 445.460999,317.905823 
	C439.585144,318.216522 433.678131,317.937775 427.427521,317.600586 
	C435.297577,305.031769 440.512482,291.653168 441.821899,276.882507 
	C442.363708,270.770874 441.178925,265.064270 437.259735,259.331848 
	C433.741638,263.008026 430.873260,266.005280 427.961731,268.631958 
	C426.811432,266.336090 427.260956,261.938019 422.671631,264.918762 
	C420.275818,262.428894 418.144104,260.144867 416.009491,257.460938 
	C416.534637,252.370682 413.125122,252.351791 410.047089,251.661438 
	C414.089203,247.358322 417.882385,243.158630 422.130981,239.485718 
	C426.744781,235.497086 430.443817,231.541595 427.001221,224.997559 
	C432.107513,228.926453 436.929657,233.335052 442.432495,236.594498 
	C445.467896,238.392456 449.620209,238.627808 453.316711,238.886856 
	C456.403625,239.103180 458.056854,239.670044 459.658142,242.888321 
	C470.607910,264.895233 466.617188,286.670929 459.173950,308.394714 
	C457.585602,313.030579 454.832916,317.267517 452.309845,321.844482 
z"/>
<path fill="#2E3351" opacity="1.000000" stroke="none" 
	d="
M299.005676,229.002975 
	C306.833984,219.031326 315.302704,209.754120 326.803162,203.277145 
	C335.914093,200.201416 344.706573,196.869125 353.786316,194.793564 
	C359.315613,193.529617 365.287750,194.203033 371.568817,194.306580 
	C372.483185,194.924942 372.889709,195.242935 373.296204,195.560913 
	C373.532166,195.046448 373.768127,194.531982 374.004089,194.017517 
	C375.104980,194.326340 376.205841,194.635178 377.617889,195.329330 
	C374.999847,200.965225 372.100067,206.204453 364.856720,206.133041 
	C364.242340,206.126984 363.615936,207.338272 362.589905,207.988785 
	C358.692505,209.591049 354.436951,210.398926 351.833435,212.915726 
	C336.330841,227.901917 321.047516,243.126877 306.110016,258.674683 
	C303.404602,261.490631 302.642853,266.173920 300.608887,270.075562 
	C299.822693,271.290680 299.165588,272.399445 299.042877,273.564484 
	C298.528412,278.449066 293.147583,283.618835 288.003601,283.622894 
	C288.001556,282.498810 288.000793,281.749420 288.255188,280.801147 
	C288.008972,279.734039 287.507538,278.865723 287.004913,277.547485 
	C287.000458,274.397583 286.997162,271.697601 286.995880,268.554382 
	C287.568634,263.569275 287.423096,258.785034 288.860260,254.536148 
	C291.790710,245.872421 295.573822,237.497101 299.005676,229.002975 
z"/>
<path fill="#333653" opacity="1.000000" stroke="none" 
	d="
M362.995117,207.984024 
	C363.615936,207.338272 364.242340,206.126984 364.856720,206.133041 
	C372.100067,206.204453 374.999847,200.965225 377.962402,195.363403 
	C386.530060,198.156036 395.064331,201.299896 403.836884,205.080978 
	C403.967499,207.386459 404.529297,209.676941 403.647522,210.625687 
	C395.772003,219.099182 388.300079,227.835373 380.986755,236.842575 
	C368.886688,251.745163 354.490967,264.794464 340.931152,278.494598 
	C336.975159,282.491486 333.071930,286.948425 328.266479,289.607971 
	C319.461639,294.481018 312.944275,301.691223 305.967010,308.520630 
	C304.706390,309.754547 303.368652,310.909637 302.344879,311.846436 
	C299.873505,310.348236 297.936737,309.174133 295.729523,307.780151 
	C293.973114,304.373566 292.487152,301.186768 290.993103,297.600037 
	C289.991638,292.799225 288.998260,288.398376 288.004883,283.997559 
	C293.147583,283.618835 298.528412,278.449066 299.042877,273.564484 
	C299.165588,272.399445 299.822693,271.290680 300.614685,270.509644 
	C301.375763,273.583832 301.365845,276.437042 302.234192,278.991730 
	C303.350616,282.276184 305.578735,284.292084 309.610870,282.005920 
	C318.020630,289.643250 331.659454,286.192352 334.187866,275.438843 
	C335.088287,271.609222 333.421082,267.175873 333.275787,262.982361 
	C340.975403,255.785660 348.336945,248.636688 355.642761,241.431274 
	C356.039978,241.039520 355.971832,240.175903 356.481628,239.670212 
	C364.465057,243.287018 371.778564,241.592697 376.382202,235.813065 
	C380.066833,231.187180 379.879456,221.015717 375.025085,216.452240 
	C376.749908,212.101242 374.980560,209.839539 371.203064,208.987534 
	C368.527740,208.384079 365.735291,208.299973 362.995117,207.984024 
z"/>
<path fill="#363855" opacity="1.000000" stroke="none" 
	d="
M296.000000,308.000000 
	C297.936737,309.174133 299.873505,310.348236 302.344879,311.846436 
	C303.368652,310.909637 304.706390,309.754547 305.967010,308.520630 
	C312.944275,301.691223 319.461639,294.481018 328.266479,289.607971 
	C333.071930,286.948425 336.975159,282.491486 340.931152,278.494598 
	C354.490967,264.794464 368.886688,251.745163 380.986755,236.842575 
	C388.300079,227.835373 395.772003,219.099182 403.647522,210.625687 
	C404.529297,209.676941 403.967499,207.386459 404.038757,205.357269 
	C407.903778,207.794510 411.805145,210.592667 415.854034,213.693268 
	C415.138214,216.026505 414.781738,218.561279 413.337158,220.014175 
	C379.996033,253.547379 346.464600,286.891663 313.185455,320.485901 
	C308.762573,324.950653 306.613983,321.056488 303.169434,318.835754 
	C300.483673,314.914673 298.241821,311.457336 296.000000,308.000000 
z"/>
<path fill="#393A56" opacity="1.000000" stroke="none" 
	d="
M426.858917,224.701782 
	C430.443817,231.541595 426.744781,235.497086 422.130981,239.485718 
	C417.882385,243.158630 414.089203,247.358322 409.617249,251.662323 
	C403.232056,251.495529 398.539551,253.967560 394.500458,258.003937 
	C380.878876,271.616364 367.345093,285.318054 353.610138,298.815094 
	C347.600861,304.720245 344.085663,311.398407 344.699585,320.150269 
	C340.687408,324.279114 336.732391,328.065216 333.366608,332.317627 
	C331.688171,334.438171 331.087952,337.412079 330.000000,340.000000 
	C325.982819,337.464447 321.696167,335.261627 318.029694,332.292938 
	C314.827637,329.700256 316.334686,327.059967 318.983032,324.423309 
	C351.501892,292.048523 383.948334,259.600739 416.311249,227.070099 
	C418.309296,225.061707 419.451111,222.201538 420.996887,219.366592 
	C422.907166,220.798996 424.811890,222.602493 426.858917,224.701782 
z"/>
<path fill="#333653" opacity="1.000000" stroke="none" 
	d="
M182.631256,200.961792 
	C185.869812,202.820740 188.740433,204.636444 191.805634,207.123962 
	C191.185532,209.844910 190.858307,212.339325 189.467346,213.862030 
	C184.760544,219.014572 179.674973,223.820953 174.737747,228.763229 
	C170.201752,233.303864 170.162735,235.033875 174.457916,239.951172 
	C176.525253,242.317947 178.659775,244.631393 180.626236,247.079544 
	C182.990005,250.022324 183.499496,252.811478 180.059692,255.596054 
	C178.952927,256.492004 178.660599,258.394012 177.742249,259.920105 
	C177.321991,260.066833 177.155197,260.129211 176.527405,260.123047 
	C171.374619,260.045441 166.682846,260.036377 161.876801,259.572144 
	C161.640411,254.731583 161.518326,250.346207 161.520279,245.514862 
	C161.666336,241.760559 161.731918,238.451813 161.702347,235.143951 
	C161.605240,224.279404 156.566315,219.717255 145.995850,220.878265 
	C151.793411,215.289352 157.751083,209.852753 163.296295,204.023788 
	C165.087387,202.141022 165.794922,199.227417 166.997284,196.398239 
	C172.085403,197.646912 177.174347,199.282715 182.631256,200.961792 
z"/>
<path fill="#333653" opacity="1.000000" stroke="none" 
	d="
M373.669617,194.011230 
	C373.768127,194.531982 373.532166,195.046448 373.296204,195.560913 
	C372.889709,195.242935 372.483185,194.924942 372.036774,194.309921 
	C372.442963,194.010254 372.889038,194.007599 373.669617,194.011230 
z"/>
<path fill="#3C3C57" opacity="1.000000" stroke="none" 
	d="
M288.003601,283.622894 
	C288.998260,288.398376 289.991638,292.799225 290.718567,297.836243 
	C290.741272,300.815491 291.030426,303.158600 291.313538,305.505554 
	C286.985291,305.509430 282.663055,305.509430 278.005402,305.509430 
	C278.275757,304.356903 278.390808,303.739777 278.566559,303.140442 
	C279.162384,301.108490 280.870728,298.330597 280.119232,297.240601 
	C279.126312,295.800476 276.256989,295.424255 274.114288,295.056488 
	C270.156921,294.377197 266.141357,294.036652 261.289062,293.451080 
	C263.660858,290.111267 265.439392,287.606842 268.167450,283.765350 
	C260.512817,283.313568 254.399704,282.952789 247.014145,282.516876 
	C248.808533,280.247620 249.954956,278.982208 250.883896,277.573425 
	C251.901108,276.030762 252.717484,274.355682 253.621399,272.738312 
	C251.799210,272.158966 250.003662,271.212891 248.149155,271.078094 
	C244.508118,270.813477 240.834259,271.000275 236.382156,271.000275 
	C237.351669,268.954895 237.813248,268.268616 238.007263,267.513580 
	C238.448593,265.796112 239.559525,263.598816 238.907013,262.426941 
	C238.187149,261.134125 235.871704,260.435364 234.126328,260.062195 
	C228.470444,258.852997 228.692673,263.966339 226.714355,266.732727 
	C225.614334,263.129242 224.922028,259.756775 223.948135,256.467621 
	C223.063202,253.479050 221.191177,253.410599 219.132446,255.405228 
	C216.028137,258.412964 213.126678,261.641022 209.906723,264.515198 
	C207.008713,267.102020 206.456039,269.660645 207.946899,273.346191 
	C208.612686,274.992096 208.133881,278.119446 206.926544,279.350800 
	C190.514236,296.089447 173.914413,312.645264 157.226440,329.109985 
	C156.229187,330.093903 153.763062,330.686005 152.546921,330.157318 
	C147.792465,328.090485 144.344925,329.233673 141.238525,333.171173 
	C139.397583,335.504608 136.712234,337.206451 135.043564,339.630737 
	C133.571396,341.769562 132.982941,344.516632 132.004272,346.995117 
	C124.215233,343.756287 116.426186,340.517487 108.318924,337.138733 
	C104.665802,332.702606 105.267525,329.297699 109.578323,325.745972 
	C114.058426,322.054749 118.201294,317.844269 121.944687,313.400177 
	C125.596581,309.064697 129.169449,309.510162 133.303909,312.148987 
	C134.804840,313.106934 136.371033,313.962677 138.428894,315.135010 
	C140.881104,320.940430 144.604507,323.354401 150.664017,322.999176 
	C155.468216,322.717529 160.040375,319.007904 160.939743,314.309357 
	C161.464767,311.566376 161.673615,308.731201 161.713333,305.933105 
	C161.816681,298.653381 161.748093,291.371185 161.748093,283.596222 
	C170.624313,283.596222 178.914536,283.679443 187.202271,283.571259 
	C194.517593,283.475769 199.809189,279.800476 200.902130,274.327393 
	C202.119339,268.232086 199.059860,263.372650 192.001190,259.813324 
	C190.901291,257.444275 190.075836,255.236206 188.656372,253.519196 
	C185.418167,249.602310 185.365448,246.514145 189.433807,242.907028 
	C195.031860,237.943649 200.236649,232.510712 205.324448,227.014679 
	C206.735901,225.490021 207.136719,223.029785 208.001221,220.998779 
	C210.468536,223.236694 212.935852,225.474594 215.845886,228.155853 
	C225.469711,237.518723 234.833603,246.259567 243.777832,255.410583 
	C251.886276,263.706482 260.438416,270.347900 273.007935,269.075256 
	C277.625183,268.607788 282.329376,268.998383 286.993896,268.997589 
	C286.997162,271.697601 287.000458,274.397583 287.004456,277.886047 
	C287.336761,279.449646 287.668396,280.224823 288.000000,281.000000 
	C288.000793,281.749420 288.001556,282.498810 288.003601,283.622894 
z"/>
<path fill="#333653" opacity="1.000000" stroke="none" 
	d="
M74.000320,288.399109 
	C77.036926,289.388550 79.348984,288.230438 81.495552,286.031860 
	C85.552086,281.877014 89.648933,277.758789 93.830208,273.730316 
	C94.970940,272.631317 96.472382,271.906708 98.189659,271.413452 
	C99.972832,280.496368 102.825043,283.148438 111.539917,283.421051 
	C115.672646,283.550323 119.818291,283.266724 124.334641,283.326111 
	C127.786385,283.503876 130.879028,283.339874 133.929321,283.626526 
	C135.433350,283.767853 136.859131,284.741913 138.226532,285.684174 
	C138.187683,290.340668 138.242630,294.652161 138.202515,299.310608 
	C138.030823,301.103851 137.954208,302.550110 137.877594,303.996338 
	C129.985840,308.083435 124.912506,303.185425 119.831039,298.329712 
	C115.154137,293.860565 112.653709,293.863342 108.110199,298.393066 
	C103.154305,303.333893 98.226990,308.303497 93.258102,313.231171 
	C89.715050,316.744843 87.036339,316.806458 84.458427,312.570038 
	C81.120872,307.085266 78.484505,301.173859 75.273438,295.223022 
	C74.667183,292.932678 74.333763,290.865417 74.000320,288.399109 
z"/>
<path fill="#BFDCFA" opacity="1.000000" stroke="none" 
	d="
M137.958710,304.445496 
	C137.954208,302.550110 138.030823,301.103851 138.628265,299.326355 
	C140.705170,298.225128 142.589462,297.789124 143.765961,296.632935 
	C154.137512,286.440216 164.444092,276.178802 174.591644,265.764008 
	C175.909164,264.411804 176.214325,262.073273 176.988419,260.191589 
	C177.155197,260.129211 177.321991,260.066833 178.202164,259.993774 
	C183.278976,260.054474 187.642426,260.125885 192.005875,260.197266 
	C199.059860,263.372650 202.119339,268.232086 200.902130,274.327393 
	C199.809189,279.800476 194.517593,283.475769 187.202271,283.571259 
	C178.914536,283.679443 170.624313,283.596222 161.748093,283.596222 
	C161.748093,291.371185 161.816681,298.653381 161.713333,305.933105 
	C161.673615,308.731201 161.464767,311.566376 160.939743,314.309357 
	C160.040375,319.007904 155.468216,322.717529 150.664017,322.999176 
	C144.604507,323.354401 140.881104,320.940430 138.821899,315.095764 
	C138.475586,311.489258 138.257690,308.191956 137.958710,304.445496 
z"/>
<path fill="#FFFFFF" opacity="1.000000" stroke="none" 
	d="
M243.089676,73.564453 
	C243.107269,76.366394 243.047836,78.724472 242.937164,81.521637 
	C237.991562,81.665146 233.003677,81.864021 228.224426,80.959961 
	C220.754822,79.546989 216.987167,74.924553 216.998993,68.469299 
	C217.009796,62.573429 221.633453,56.640209 227.715729,55.164547 
	C232.595108,53.980724 242.705582,58.988770 242.990158,67.640808 
	C243.050201,69.465675 243.007828,71.293907 243.089676,73.564453 
z"/>
<path fill="#434159" opacity="1.000000" stroke="none" 
	d="
M132.436584,346.996338 
	C132.982941,344.516632 133.571396,341.769562 135.043564,339.630737 
	C136.712234,337.206451 139.397583,335.504608 141.238525,333.171173 
	C144.344925,329.233673 147.792465,328.090485 152.546921,330.157318 
	C153.763062,330.686005 156.229187,330.093903 157.226440,329.109985 
	C173.914413,312.645264 190.514236,296.089447 206.926544,279.350800 
	C208.133881,278.119446 208.612686,274.992096 207.946899,273.346191 
	C206.456039,269.660645 207.008713,267.102020 209.906723,264.515198 
	C213.126678,261.641022 216.028137,258.412964 219.132446,255.405228 
	C221.191177,253.410599 223.063202,253.479050 223.948135,256.467621 
	C224.922028,259.756775 225.614334,263.129242 226.714355,267.182678 
	C226.999802,270.599976 227.000198,273.299988 226.861298,276.320587 
	C226.482330,277.761200 226.242676,278.881195 226.002289,280.423492 
	C225.808182,282.299011 225.821365,283.817352 225.387161,285.194672 
	C222.984772,292.815430 220.473419,300.401825 217.999405,308.000000 
	C211.428726,315.799988 204.858047,323.599976 197.829407,331.836975 
	C191.898743,335.706085 186.426071,339.138153 180.402969,342.915436 
	C204.856949,339.346008 223.250916,347.529724 236.005585,368.002441 
	C236.675491,370.080353 237.345398,372.158234 237.616119,374.665619 
	C232.811844,374.729248 228.406738,374.363403 224.001633,373.997559 
	C217.073776,363.211914 207.732269,356.729431 194.475357,355.881622 
	C182.740814,355.131104 173.137268,359.165558 163.847168,366.853638 
	C158.723343,366.333466 154.360748,365.666229 149.998169,364.999023 
	C155.276047,359.165192 160.553940,353.331390 165.004639,348.411896 
	C155.328445,347.986023 144.098663,347.491760 132.436584,346.996338 
M170.481445,346.588165 
	C170.481445,346.588165 170.414246,346.476715 170.481445,346.588165 
z"/>
<path fill="#333653" opacity="1.000000" stroke="none" 
	d="
M144.004181,374.005219 
	C141.920700,373.365112 139.837204,372.725006 137.376556,372.041870 
	C136.180771,365.538910 134.068924,359.976654 128.021759,356.338348 
	C126.023048,355.135742 124.906982,352.466125 123.966034,350.011353 
	C127.911865,350.116089 132.006424,349.131165 132.628540,354.516144 
	C132.703659,355.166351 135.395599,355.871155 136.899887,355.932495 
	C141.452286,356.118134 146.017105,355.999634 151.000397,355.999634 
	C149.996231,359.435425 149.245483,362.004120 148.710632,365.137848 
	C147.285736,368.470337 145.644958,371.237762 144.004181,374.005219 
z"/>
<path fill="#403E58" opacity="1.000000" stroke="none" 
	d="
M143.996201,374.400330 
	C145.644958,371.237762 147.285736,368.470337 148.963562,365.351440 
	C149.000610,365.000000 149.499420,364.999573 149.748795,364.999298 
	C154.360748,365.666229 158.723343,366.333466 163.544479,367.001556 
	C163.751694,367.804504 163.500351,368.606537 162.816467,369.854462 
	C160.228561,374.138245 158.170563,378.035858 155.871078,381.785400 
	C154.920074,383.336090 153.549149,385.615051 152.199310,385.740936 
	C148.851868,386.053101 145.406525,385.315735 142.000519,385.000000 
	C142.663101,381.598480 143.325653,378.196930 143.996201,374.400330 
z"/>
<path fill="#333653" opacity="1.000000" stroke="none" 
	d="
M127.944199,370.652222 
	C126.152756,370.513000 124.304901,370.027191 122.228523,369.270691 
	C123.962593,369.435211 125.925186,369.870453 127.944199,370.652222 
z"/>
<path fill="#333653" opacity="1.000000" stroke="none" 
	d="
M134.956177,371.674133 
	C134.137207,371.841125 133.273804,371.683472 132.205200,371.262909 
	C132.970581,371.116516 133.941147,371.233002 134.956177,371.674133 
z"/>
<path fill="#383A55" opacity="1.000000" stroke="none" 
	d="
M141.703461,385.292999 
	C145.406525,385.315735 148.851868,386.053101 152.199310,385.740936 
	C153.549149,385.615051 154.920074,383.336090 155.871078,381.785400 
	C158.170563,378.035858 160.228561,374.138245 162.690735,370.148926 
	C163.269394,370.848297 163.541245,371.699066 163.854446,373.199524 
	C159.041351,380.090485 158.113571,387.439270 157.574707,395.065033 
	C156.675446,397.163208 155.147400,399.578979 155.763626,401.157776 
	C158.138199,407.241577 161.198380,413.057739 164.002991,418.973694 
	C153.500992,422.446167 145.217361,417.781982 142.621384,405.766296 
	C141.214828,399.255920 141.748138,392.326416 141.703461,385.292999 
z"/>
<path fill="#44425A" opacity="1.000000" stroke="none" 
	d="
M164.348694,419.017090 
	C161.198380,413.057739 158.138199,407.241577 155.763626,401.157776 
	C155.147400,399.578979 156.675446,397.163208 157.688995,395.252258 
	C158.191238,395.676392 158.316544,395.934875 158.500092,396.567780 
	C159.654892,400.657501 160.844986,404.327484 162.075562,408.341705 
	C164.700256,411.811371 167.284454,414.936798 170.029053,418.366211 
	C177.304291,424.495636 185.390747,427.151154 194.617966,426.398499 
	C206.885422,425.397858 215.510651,418.860352 222.013321,409.077515 
	C222.426025,409.908478 222.715958,410.455017 223.005890,411.001526 
	C222.693924,412.422150 222.381958,413.842773 222.029190,415.627716 
	C215.805542,422.069183 209.016830,427.175903 200.224030,429.709351 
	C186.747238,431.130005 174.576172,428.795471 164.348694,419.017090 
z"/>
<path fill="#434159" opacity="1.000000" stroke="none" 
	d="
M428.004883,269.002533 
	C430.873260,266.005280 433.741638,263.008026 437.259735,259.331848 
	C441.178925,265.064270 442.363708,270.770874 441.821899,276.882507 
	C440.512482,291.653168 435.297577,305.031769 427.034180,317.646027 
	C420.957947,323.536957 415.326477,329.624695 408.786957,334.492462 
	C397.876038,342.614044 385.400757,347.198914 371.675995,348.027924 
	C369.391113,348.165955 367.127869,348.662750 364.372009,348.653503 
	C362.592896,348.208771 361.296448,348.104370 360.000000,348.000000 
	C358.933990,347.999237 357.867950,347.998444 356.405396,347.631927 
	C357.036163,345.647308 357.900330,343.890442 359.126770,342.439850 
	C361.303619,339.865204 363.700226,337.476349 366.389954,335.001221 
	C371.035583,332.644287 376.027557,331.061676 379.428894,327.813477 
	C393.363251,314.506561 406.706299,300.582855 420.495056,287.119751 
	C425.712677,282.025330 428.564636,276.313446 428.004883,269.002533 
z"/>
<path fill="#363854" opacity="1.000000" stroke="none" 
	d="
M236.370605,368.005737 
	C223.250916,347.529724 204.856949,339.346008 180.402969,342.915436 
	C186.426071,339.138153 191.898743,335.706085 197.684570,332.136414 
	C198.329681,331.989746 198.695007,332.069183 198.988632,331.958496 
	C204.403641,329.917053 206.994064,330.719818 206.477890,338.006775 
	C213.888779,339.109161 221.307312,340.212708 228.880615,341.339264 
	C228.708237,343.317780 228.843735,344.042236 228.571213,344.545959 
	C224.966187,351.209076 225.393402,351.986145 232.935028,351.994415 
	C249.375748,352.012421 265.816498,351.990540 282.257233,352.011230 
	C284.481323,352.014008 287.268799,351.321716 286.852173,355.878876 
	C280.051605,363.560944 274.826874,371.324677 273.002441,380.998779 
	C272.661896,386.720703 272.321320,392.442596 271.989746,398.583710 
	C270.771393,396.843719 269.678955,394.591370 268.273224,392.555298 
	C267.183746,390.977295 265.904449,389.381836 264.357025,388.296997 
	C260.072021,385.292877 255.453079,382.754730 251.244843,379.654083 
	C246.256470,375.978668 241.559128,371.908234 236.370605,368.005737 
z"/>
<path fill="#434159" opacity="1.000000" stroke="none" 
	d="
M273.377563,381.040283 
	C274.826874,371.324677 280.051605,363.560944 286.854858,356.301697 
	C297.911713,346.719971 310.228729,341.215851 324.852417,342.027313 
	C326.635254,342.126221 328.397522,342.594940 330.959229,342.945312 
	C332.499420,342.999298 333.249725,343.000275 334.228821,343.276306 
	C338.635468,345.035706 342.813263,346.520020 346.991058,348.004333 
	C351.749817,352.258972 357.069214,356.047943 361.103394,360.904541 
	C364.838684,365.401337 367.548645,370.876862 370.050446,376.229736 
	C371.933990,380.259674 368.990417,382.992218 364.616791,382.433655 
	C359.923981,381.834351 357.227142,379.067322 355.145477,375.273590 
	C348.158112,362.539368 336.984161,355.835083 322.898926,355.406250 
	C309.295197,354.992096 298.378967,361.355469 290.632965,372.745453 
	C289.144287,374.934448 287.754364,377.203400 286.116364,379.275330 
	C282.838745,383.421234 280.088989,383.763824 273.377563,381.040283 
z"/>
<path fill="#DAEDFE" opacity="1.000000" stroke="none" 
	d="
M332.990234,361.200378 
	C337.367523,363.871155 341.744843,366.541901 345.945312,369.656677 
	C342.830719,373.248566 339.974030,376.477020 336.940765,379.530029 
	C325.785187,390.758423 314.555237,401.912903 303.398956,413.140625 
	C302.011719,414.536713 300.898682,416.205200 299.350433,417.574982 
	C296.230469,412.977356 293.418671,408.552246 290.939758,403.995667 
	C304.857941,390.388367 318.450562,376.919952 332.001343,363.409576 
	C332.534882,362.877655 332.669678,361.945862 332.990234,361.200378 
z"/>
<path fill="#E6F2FD" opacity="1.000000" stroke="none" 
	d="
M332.628754,361.040222 
	C332.669678,361.945862 332.534882,362.877655 332.001343,363.409576 
	C318.450562,376.919952 304.857941,390.388367 290.725525,403.693878 
	C289.461304,400.016235 288.744202,396.508881 288.027069,393.001526 
	C288.818359,382.511719 292.389130,373.361328 300.943970,366.713806 
	C310.360718,359.396545 320.781067,357.212585 332.628754,361.040222 
z"/>
<path fill="#CFE7FF" opacity="1.000000" stroke="none" 
	d="
M299.658600,417.747498 
	C300.898682,416.205200 302.011719,414.536713 303.398956,413.140625 
	C314.555237,401.912903 325.785187,390.758423 336.940765,379.530029 
	C339.974030,376.477020 342.830719,373.248566 346.111359,369.960541 
	C348.971100,373.965546 351.487976,378.110687 353.652008,382.662598 
	C351.897736,384.181213 350.376831,385.172546 349.114166,386.424316 
	C340.544952,394.919525 332.066833,403.506714 323.482300,411.986237 
	C319.263397,416.153503 314.880005,420.154236 310.224365,424.204102 
	C306.471313,422.034424 303.064941,419.890961 299.658600,417.747498 
z"/>
<path fill="#C2DFFE" opacity="1.000000" stroke="none" 
	d="
M310.571045,424.230347 
	C314.880005,420.154236 319.263397,416.153503 323.482300,411.986237 
	C332.066833,403.506714 340.544952,394.919525 349.114166,386.424316 
	C350.376831,385.172546 351.897736,384.181213 353.642944,383.035461 
	C357.256470,390.393646 355.925232,397.733795 353.432434,405.701599 
	C352.417297,407.647827 351.735229,408.972839 350.992920,410.263153 
	C343.037354,424.091187 325.171600,430.260254 310.571045,424.230347 
z"/>
<path fill="#3D3D57" opacity="1.000000" stroke="none" 
	d="
M347.240967,347.724304 
	C342.813263,346.520020 338.635468,345.035706 334.189270,342.919739 
	C332.613922,341.525391 331.306946,340.762695 330.000000,340.000000 
	C331.087952,337.412079 331.688171,334.438171 333.366608,332.317627 
	C336.732391,328.065216 340.687408,324.279114 344.979034,320.387177 
	C346.724609,323.208984 348.187103,324.258301 350.586853,321.585083 
	C352.906494,324.148346 354.991241,326.444092 356.941376,329.091888 
	C355.104736,332.336151 356.806183,333.863892 359.247467,334.480408 
	C361.406799,335.025726 363.745422,334.860992 366.004883,335.009766 
	C363.700226,337.476349 361.303619,339.865204 359.126770,342.439850 
	C357.900330,343.890442 357.036163,345.647308 356.005615,347.631287 
	C353.165253,347.812317 350.328064,347.628296 347.240967,347.724304 
z"/>
<path fill="#44425A" opacity="1.000000" stroke="none" 
	d="
M310.224365,424.204102 
	C325.171600,430.260254 343.037354,424.091187 350.992920,410.263153 
	C351.735229,408.972839 352.417297,407.647827 353.346130,406.099060 
	C354.121674,407.065704 355.243622,408.343597 355.102325,409.461853 
	C354.892029,411.126190 353.789398,412.677795 353.028564,414.635010 
	C348.350586,418.656433 344.087524,422.993256 338.993286,425.845947 
	C327.872803,432.073212 316.326752,431.741547 304.953339,425.995758 
	C303.177429,425.098572 301.411713,424.181213 299.321472,423.130920 
	C295.849701,419.120361 292.697723,415.252075 289.275269,411.190674 
	C287.796417,407.225311 286.171143,403.520050 285.549988,399.653473 
	C285.223663,397.622284 286.654907,395.308746 287.659790,393.062103 
	C288.744202,396.508881 289.461304,400.016235 290.392639,403.825378 
	C293.418671,408.552246 296.230469,412.977356 299.350433,417.574982 
	C303.064941,419.890961 306.471313,422.034424 310.224365,424.204102 
z"/>
<path fill="#3D3D57" opacity="1.000000" stroke="none" 
	d="
M360.231476,348.272766 
	C361.296448,348.104370 362.592896,348.208771 363.946228,348.654175 
	C362.823059,348.845245 361.643005,348.695374 360.231476,348.272766 
z"/>
<path fill="#393A56" opacity="1.000000" stroke="none" 
	d="
M224.005188,374.366180 
	C228.406738,374.363403 232.811844,374.729248 237.620667,375.045959 
	C239.020233,376.328247 240.639923,377.548645 240.900024,379.010895 
	C241.845825,384.327850 242.336624,389.725769 242.998276,395.545959 
	C238.375961,396.438019 235.244720,394.663300 233.068314,390.374847 
	C230.345886,385.010559 227.054535,379.934998 224.005188,374.366180 
z"/>
<path fill="#C2DFFE" opacity="1.000000" stroke="none" 
	d="
M221.890549,408.793030 
	C215.510651,418.860352 206.885422,425.397858 194.617966,426.398499 
	C185.390747,427.151154 177.304291,424.495636 170.339233,418.220825 
	C178.727173,409.613708 187.015015,401.505341 195.188828,393.283600 
	C202.536362,385.892975 209.758652,378.377869 217.036194,370.917664 
	C222.287842,375.981018 224.490997,382.406494 225.449829,390.197144 
	C224.352966,396.895233 223.121750,402.844147 221.890549,408.793030 
z"/>
<path fill="#CFE7FF" opacity="1.000000" stroke="none" 
	d="
M216.926361,370.601257 
	C209.758652,378.377869 202.536362,385.892975 195.188828,393.283600 
	C187.015015,401.505341 178.727173,409.613708 170.178818,417.916809 
	C167.284454,414.936798 164.700256,411.811371 162.417816,408.307007 
	C163.538803,407.392487 164.480270,406.979614 165.159195,406.303253 
	C178.476974,393.035004 191.777618,379.749420 205.027435,366.413391 
	C205.905106,365.529938 206.348679,364.215179 206.994171,363.101074 
	C210.268311,365.495667 213.542419,367.890259 216.926361,370.601257 
z"/>
<path fill="#DAEDFE" opacity="1.000000" stroke="none" 
	d="
M206.727325,362.848236 
	C206.348679,364.215179 205.905106,365.529938 205.027435,366.413391 
	C191.777618,379.749420 178.476974,393.035004 165.159195,406.303253 
	C164.480270,406.979614 163.538803,407.392487 162.377319,407.962769 
	C160.844986,404.327484 159.654892,400.657501 158.879776,396.510956 
	C160.146606,395.568115 161.163620,395.268158 161.825638,394.610718 
	C172.375671,384.133789 182.900711,373.631287 193.357498,363.061493 
	C194.213425,362.196320 194.533646,360.801147 195.102783,359.652252 
	C198.888687,360.633301 202.674591,361.614349 206.727325,362.848236 
z"/>
<path fill="#E6F2FD" opacity="1.000000" stroke="none" 
	d="
M194.748978,359.475403 
	C194.533646,360.801147 194.213425,362.196320 193.357498,363.061493 
	C182.900711,373.631287 172.375671,384.133789 161.825638,394.610718 
	C161.163620,395.268158 160.146606,395.568115 158.915070,396.091217 
	C158.316544,395.934875 158.191238,395.676392 158.045120,395.185364 
	C158.113571,387.439270 159.041351,380.090485 163.978592,373.515564 
	C172.012955,363.835449 181.743851,358.376587 194.748978,359.475403 
z"/>
<path fill="#393A56" opacity="1.000000" stroke="none" 
	d="
M222.013321,409.077515 
	C223.121750,402.844147 224.352966,396.895233 225.627075,390.531494 
	C230.005127,390.002533 231.555923,392.157532 230.040512,396.088989 
	C228.111221,401.094116 225.832291,405.964478 223.355011,410.947235 
	C222.715958,410.455017 222.426025,409.908478 222.013321,409.077515 
z"/>
<path fill="#E9F4FD" opacity="1.000000" stroke="none" 
	d="
M123.958084,283.170166 
	C119.818291,283.266724 115.672646,283.550323 111.539917,283.421051 
	C102.825043,283.148438 99.972832,280.496368 98.522430,271.405060 
	C99.428139,265.266388 102.568642,261.560638 109.145386,260.180115 
	C119.278030,260.056458 128.622971,260.056458 138.021423,260.056458 
	C138.021423,249.845505 138.021423,240.422974 138.021423,231.000458 
	C140.480347,227.740021 142.939270,224.479584 145.697021,221.048706 
	C156.566315,219.717255 161.605240,224.279404 161.702347,235.143951 
	C161.731918,238.451813 161.666336,241.760559 161.195847,245.533356 
	C159.888412,246.445694 158.853226,246.716080 158.196793,247.367920 
	C147.353378,258.135254 136.538864,268.932068 125.786331,279.790039 
	C124.921288,280.663605 124.555740,282.031830 123.958084,283.170166 
z"/>
<path fill="#333653" opacity="1.000000" stroke="none" 
	d="
M137.675262,231.033188 
	C138.021423,240.422974 138.021423,249.845505 138.021423,260.056458 
	C128.622971,260.056458 119.278030,260.056458 109.466217,260.011841 
	C109.101074,259.482849 109.035080,258.828308 109.328835,258.538727 
	C118.640739,249.359314 127.987579,240.215317 137.675262,231.033188 
z"/>
<path fill="#393A56" opacity="1.000000" stroke="none" 
	d="
M218.386551,307.956055 
	C220.473419,300.401825 222.984772,292.815430 225.387161,285.194672 
	C225.821365,283.817352 225.808182,282.299011 226.353607,280.384338 
	C229.071213,278.785706 230.424576,277.572418 227.000610,276.000000 
	C227.000198,273.299988 226.999802,270.599976 226.999390,267.449982 
	C228.692673,263.966339 228.470444,258.852997 234.126328,260.062195 
	C235.871704,260.435364 238.187149,261.134125 238.907013,262.426941 
	C239.559525,263.598816 238.448593,265.796112 238.007263,267.513580 
	C237.813248,268.268616 237.351669,268.954895 236.382156,271.000275 
	C240.834259,271.000275 244.508118,270.813477 248.149155,271.078094 
	C250.003662,271.212891 251.799210,272.158966 253.621399,272.738312 
	C252.717484,274.355682 251.901108,276.030762 250.883896,277.573425 
	C249.954956,278.982208 248.808533,280.247620 247.014145,282.516876 
	C254.399704,282.952789 260.512817,283.313568 268.167450,283.765350 
	C265.439392,287.606842 263.660858,290.111267 261.289062,293.451080 
	C266.141357,294.036652 270.156921,294.377197 274.114288,295.056488 
	C276.256989,295.424255 279.126312,295.800476 280.119232,297.240601 
	C280.870728,298.330597 279.162384,301.108490 278.566559,303.140442 
	C278.390808,303.739777 278.275757,304.356903 278.005402,305.509430 
	C282.663055,305.509430 286.985291,305.509430 291.313538,305.505554 
	C291.030426,303.158600 290.741272,300.815491 290.726685,298.236206 
	C292.487152,301.186768 293.973114,304.373566 295.729523,307.780151 
	C298.241821,311.457336 300.483673,314.914673 302.862732,318.686005 
	C304.332367,321.993164 305.664703,324.986359 307.425720,328.942535 
	C302.227112,328.942535 297.878540,328.942535 293.066162,328.540222 
	C291.409729,320.957520 288.353821,319.278595 277.989380,320.109528 
	C272.741882,320.530212 270.947937,323.065491 270.991089,330.000000 
	C266.712006,329.665771 262.437469,329.238403 258.152283,329.028168 
	C255.006729,328.873840 253.492584,328.065979 254.663696,324.434998 
	C256.354340,319.193085 254.704468,317.298981 248.827621,317.000305 
	C244.143051,316.762299 239.096283,318.154541 235.265884,314.118652 
	C235.235718,313.688934 235.077988,313.289551 235.209549,313.047211 
	C238.973450,306.114136 238.902161,305.799103 230.885513,306.086029 
	C226.831650,306.231140 222.809937,307.274750 218.386551,307.956055 
z"/>
<path fill="#FA645E" opacity="1.000000" stroke="none" 
	d="
M271.202698,330.291626 
	C270.947937,323.065491 272.741882,320.530212 277.989380,320.109528 
	C288.353821,319.278595 291.409729,320.957520 292.573730,328.503235 
	C290.929871,333.298920 287.629303,335.201416 283.069000,334.972504 
	C278.742828,334.755341 273.606750,336.524384 271.202698,330.291626 
z"/>
<path fill="#F9CE53" opacity="1.000000" stroke="none" 
	d="
M225.360703,320.997803 
	C229.338623,320.626343 233.001221,319.902649 236.521530,320.335663 
	C240.398636,320.812592 243.185196,323.146606 243.019165,327.694061 
	C242.863708,331.951691 240.397629,334.011505 236.467407,334.406738 
	C233.843643,334.670593 230.966965,335.109467 228.583023,334.321625 
	C226.135132,333.512665 223.482376,331.737366 222.112213,329.614868 
	C219.901154,326.189758 221.127960,323.002380 225.360703,320.997803 
z"/>
<path fill="#393A56" opacity="1.000000" stroke="none" 
	d="
M330.125153,340.294556 
	C331.306946,340.762695 332.613922,341.525391 333.960449,342.644653 
	C333.249725,343.000275 332.499420,342.999298 331.373962,342.996704 
	C330.749298,342.193115 330.499786,341.391113 330.125153,340.294556 
z"/>
<path fill="#403E58" opacity="1.000000" stroke="none" 
	d="
M286.995911,268.554382 
	C282.329376,268.998383 277.625183,268.607788 273.007935,269.075256 
	C260.438416,270.347900 251.886276,263.706482 243.777832,255.410583 
	C234.833603,246.259567 225.469711,237.518723 216.144302,228.299606 
	C221.600555,228.333328 227.199783,228.925278 232.801926,228.954269 
	C254.556488,229.066849 276.311981,229.000519 298.536407,229.001862 
	C295.573822,237.497101 291.790710,245.872421 288.860260,254.536148 
	C287.423096,258.785034 287.568634,263.569275 286.995911,268.554382 
z"/>
<path fill="#363855" opacity="1.000000" stroke="none" 
	d="
M192.001190,259.813354 
	C187.642426,260.125885 183.278976,260.054474 178.455597,259.909424 
	C178.660599,258.394012 178.952927,256.492004 180.059692,255.596054 
	C183.499496,252.811478 182.990005,250.022324 180.626236,247.079544 
	C178.659775,244.631393 176.525253,242.317947 174.457916,239.951172 
	C170.162735,235.033875 170.201752,233.303864 174.737747,228.763229 
	C179.674973,223.820953 184.760544,219.014572 189.467346,213.862030 
	C190.858307,212.339325 191.185532,209.844910 192.000717,207.396881 
	C197.237885,211.465393 202.474533,215.932800 207.856201,220.699493 
	C207.136719,223.029785 206.735901,225.490021 205.324448,227.014679 
	C200.236649,232.510712 195.031860,237.943649 189.433807,242.907028 
	C185.365448,246.514145 185.418167,249.602310 188.656372,253.519196 
	C190.075836,255.236206 190.901291,257.444275 192.001190,259.813354 
z"/>
<path fill="#44425A" opacity="1.000000" stroke="none" 
	d="
M350.351959,321.317535 
	C348.187103,324.258301 346.724609,323.208984 345.279419,320.236908 
	C344.085663,311.398407 347.600861,304.720245 353.610138,298.815094 
	C367.345093,285.318054 380.878876,271.616364 394.500458,258.003937 
	C398.539551,253.967560 403.232056,251.495529 409.568939,251.997833 
	C413.125122,252.351791 416.534637,252.370682 415.641235,257.394470 
	C407.422699,253.348495 396.133301,258.523499 394.425171,268.641510 
	C393.900574,271.748779 394.936371,275.119507 395.110107,278.728241 
	C388.728943,285.470825 382.454651,291.815979 376.294312,298.269897 
	C374.983276,299.643341 374.087219,301.412903 372.623566,302.898254 
	C362.494995,298.978455 354.317139,301.110596 351.196259,309.192139 
	C349.801453,312.803986 350.566895,317.250061 350.351959,321.317535 
z"/>
<path fill="#2F3352" opacity="1.000000" stroke="none" 
	d="
M366.389923,335.001221 
	C363.745422,334.860992 361.406799,335.025726 359.247467,334.480408 
	C356.806183,333.863892 355.104736,332.336151 357.343750,329.196320 
	C367.278625,332.110626 375.636719,328.949890 378.249146,320.663544 
	C379.245880,317.502075 378.656799,313.840637 378.970337,310.088379 
	C386.335480,302.770233 393.570312,295.820160 400.644348,288.710114 
	C401.548279,287.801605 401.613983,286.059143 402.472534,284.797424 
	C412.756927,287.820099 420.835083,284.240784 423.096283,275.334137 
	C423.904724,272.149780 423.037903,268.540131 422.935730,265.124603 
	C427.260956,261.938019 426.811432,266.336090 427.961731,268.631958 
	C428.564636,276.313446 425.712677,282.025330 420.495056,287.119751 
	C406.706299,300.582855 393.363251,314.506561 379.428894,327.813477 
	C376.027557,331.061676 371.035583,332.644287 366.389923,335.001221 
z"/>
<path fill="#FA645E" opacity="1.000000" stroke="none" 
	d="
M422.671631,264.918762 
	C423.037903,268.540131 423.904724,272.149780 423.096283,275.334137 
	C420.835083,284.240784 412.756927,287.820099 402.276764,284.544006 
	C399.536835,282.253967 397.397247,280.311798 395.257629,278.369598 
	C394.936371,275.119507 393.900574,271.748779 394.425171,268.641510 
	C396.133301,258.523499 407.422699,253.348495 415.644104,257.794434 
	C418.144104,260.144867 420.275818,262.428894 422.671631,264.918762 
z"/>
<path fill="#44425A" opacity="1.000000" stroke="none" 
	d="
M362.589905,207.988785 
	C365.735291,208.299973 368.527740,208.384079 371.203064,208.987534 
	C374.980560,209.839539 376.749908,212.101242 374.691162,216.353027 
	C370.935974,211.521973 365.499329,211.830307 360.774231,212.726974 
	C352.358276,214.324036 349.158264,220.779419 349.722229,232.025574 
	C347.928894,232.855621 346.240356,233.389923 345.102600,234.492569 
	C339.129852,240.281052 333.228882,246.148514 327.470215,252.149017 
	C326.284241,253.384766 325.809631,255.303223 324.614319,256.918884 
	C315.741241,255.344727 308.797638,258.891296 306.138550,266.096588 
	C303.951691,272.022278 305.915924,277.073608 309.303375,281.858917 
	C305.578735,284.292084 303.350616,282.276184 302.234192,278.991730 
	C301.365845,276.437042 301.375763,273.583832 300.989563,270.429199 
	C302.642853,266.173920 303.404602,261.490631 306.110016,258.674683 
	C321.047516,243.126877 336.330841,227.901917 351.833435,212.915726 
	C354.436951,210.398926 358.692505,209.591049 362.589905,207.988785 
z"/>
<path fill="#333653" opacity="1.000000" stroke="none" 
	d="
M288.255188,280.801147 
	C287.668396,280.224823 287.336761,279.449646 287.005615,278.335938 
	C287.507538,278.865723 288.008972,279.734039 288.255188,280.801147 
z"/>
<path fill="#F9CE53" opacity="1.000000" stroke="none" 
	d="
M309.610870,282.005920 
	C305.915924,277.073608 303.951691,272.022278 306.138550,266.096588 
	C308.797638,258.891296 315.741241,255.344727 324.896301,257.116760 
	C328.022736,259.207886 330.474335,261.113007 332.925964,263.018127 
	C333.421082,267.175873 335.088287,271.609222 334.187866,275.438843 
	C331.659454,286.192352 318.020630,289.643250 309.610870,282.005920 
z"/>
<path fill="#C4DC41" opacity="1.000000" stroke="none" 
	d="
M350.081146,231.992050 
	C349.158264,220.779419 352.358276,214.324036 360.774231,212.726974 
	C365.499329,211.830307 370.935974,211.521973 374.684937,216.724945 
	C379.879456,221.015717 380.066833,231.187180 376.382202,235.813065 
	C371.778564,241.592697 364.465057,243.287018 356.296692,239.422485 
	C353.860687,236.688339 351.970917,234.340195 350.081146,231.992050 
z"/>
<path fill="#3D3D57" opacity="1.000000" stroke="none" 
	d="
M349.722229,232.025574 
	C351.970917,234.340195 353.860687,236.688339 355.935364,239.284210 
	C355.971832,240.175903 356.039978,241.039520 355.642761,241.431274 
	C348.336945,248.636688 340.975403,255.785660 333.275818,262.982361 
	C330.474335,261.113007 328.022736,259.207886 325.289124,257.104889 
	C325.809631,255.303223 326.284241,253.384766 327.470215,252.149017 
	C333.228882,246.148514 339.129852,240.281052 345.102600,234.492569 
	C346.240356,233.389923 347.928894,232.855621 349.722229,232.025574 
z"/>
<path fill="#DAEDFE" opacity="1.000000" stroke="none" 
	d="
M124.334641,283.326111 
	C124.555740,282.031830 124.921288,280.663605 125.786331,279.790039 
	C136.538864,268.932068 147.353378,258.135254 158.196793,247.367920 
	C158.853226,246.716080 159.888412,246.445694 161.071808,245.979340 
	C161.518326,250.346207 161.640411,254.731583 161.843201,259.922668 
	C160.658432,262.609711 159.659698,264.760040 158.080872,266.325226 
	C151.589981,272.760010 144.922699,279.016846 138.320312,285.339142 
	C136.859131,284.741913 135.433350,283.767853 133.929321,283.626526 
	C130.879028,283.339874 127.786385,283.503876 124.334641,283.326111 
z"/>
<path fill="#CFE7FF" opacity="1.000000" stroke="none" 
	d="
M138.226532,285.684174 
	C144.922699,279.016846 151.589981,272.760010 158.080872,266.325226 
	C159.659698,264.760040 160.658432,262.609711 161.957504,260.377869 
	C166.682846,260.036377 171.374619,260.045441 176.527405,260.123047 
	C176.214325,262.073273 175.909164,264.411804 174.591644,265.764008 
	C164.444092,276.178802 154.137512,286.440216 143.765961,296.632935 
	C142.589462,297.789124 140.705170,298.225128 138.723328,298.979370 
	C138.242630,294.652161 138.187683,290.340668 138.226532,285.684174 
z"/>
<path fill="#3C3C57" opacity="1.000000" stroke="none" 
	d="
M226.861298,276.320587 
	C230.424576,277.572418 229.071213,278.785706 226.354370,279.962036 
	C226.242676,278.881195 226.482330,277.761200 226.861298,276.320587 
z"/>
<path fill="#363854" opacity="1.000000" stroke="none" 
	d="
M170.447845,346.532440 
	C170.414246,346.476715 170.481445,346.588165 170.447845,346.532440 
z"/>
<path fill="#04B7F7" opacity="1.000000" stroke="none" 
	d="
M378.790405,310.407074 
	C378.656799,313.840637 379.245880,317.502075 378.249146,320.663544 
	C375.636719,328.949890 367.278625,332.110626 357.478394,328.844269 
	C354.991241,326.444092 352.906494,324.148346 350.586853,321.585083 
	C350.566895,317.250061 349.801453,312.803986 351.196259,309.192139 
	C354.317139,301.110596 362.494995,298.978455 372.791229,303.182922 
	C375.153687,305.848602 376.972076,308.127838 378.790405,310.407074 
z"/>
<path fill="#393A56" opacity="1.000000" stroke="none" 
	d="
M378.970337,310.088379 
	C376.972076,308.127838 375.153687,305.848602 373.167664,303.284668 
	C374.087219,301.412903 374.983276,299.643341 376.294312,298.269897 
	C382.454651,291.815979 388.728943,285.470825 395.110107,278.728241 
	C397.397247,280.311798 399.536835,282.253967 401.872192,284.449585 
	C401.613983,286.059143 401.548279,287.801605 400.644348,288.710114 
	C393.570312,295.820160 386.335480,302.770233 378.970337,310.088379 
z"/>
</svg>