<svg viewBox="0 0 48 48" xmlns="http://www.w3.org/2000/svg"><circle cx="24" cy="24" fill="#ffce52" r="23"/><path d="m7.37 29h33.26a12.861 12.861 0 0 1 -4.64 6.93c-.12-2.16-5.98-2.93-11.99-2.93-6.69 0-11.89.77-11.99 2.93a12.861 12.861 0 0 1 -4.64-6.93z" fill="#273941"/><path d="m35.99 35.93c-.19.15-.39.3-.59.45a19.76 19.76 0 0 1 -22.8 0c-.2-.15-.4-.3-.59-.45.1-2.16 5.3-2.93 11.99-2.93 6.01 0 11.87.77 11.99 2.93z" fill="#ae2d4c"/><path d="m41 26a12.085 12.085 0 0 1 -.37 3h-33.26a12.085 12.085 0 0 1 -.37-3c0-1.11 7.6-2 17-2s17 .89 17 2z" fill="#f6fafd"/><path d="m37.553 19.9c-1.789-.9-3.836-.9-7.553-.9a1 1 0 0 1 -1-1c0-2.265 3.568-5 8-5v2a7.807 7.807 0 0 0 -5.419 2c3.058.018 4.963.151 6.866 1.1z" fill="#273941"/><path d="m10.447 19.9-.894-1.79c1.9-.951 3.808-1.084 6.866-1.1a7.807 7.807 0 0 0 -5.419-2.01v-2c4.432 0 8 2.735 8 5a1 1 0 0 1 -1 1c-3.717 0-5.764 0-7.553.9z" fill="#273941"/><path d="m24 4c12.15 0 22 8.507 22 19h.975a23 23 0 0 0 -45.95 0h.975c0-10.493 9.85-19 22-19z" fill="#ffe369"/><path d="m46 23c0 10.493-9.85 19-22 19s-22-8.507-22-19h-.975c-.014.332-.025.665-.025 1a23 23 0 0 0 46 0c0-.335-.011-.668-.025-1z" fill="#ffb32b"/><g fill="#f6fafd"><ellipse cx="37" cy="9" rx=".825" ry="1.148" transform="matrix(.70685991 -.70735356 .70735356 .70685991 4.48 28.81)"/><ellipse cx="30.746" cy="4.5" rx=".413" ry=".574" transform="matrix(.70685991 -.70735356 .70735356 .70685991 5.829 23.067)"/><ellipse cx="34" cy="7" rx="1.65" ry="2.297" transform="matrix(.70685991 -.70735356 .70735356 .70685991 5.015 26.102)"/></g><path d="m12.933 34.6c-.109-.075-.226-.141-.333-.219-.2-.15-.4-.3-.59-.45a13.4 13.4 0 0 1 -3.94-4.931h-.7a12.861 12.861 0 0 0 4.64 6.93 1.72 1.72 0 0 1 .923-1.33z" fill="#141e21"/><path d="m35.99 33.93c-.19.15-.39.3-.59.45-.123.089-.257.166-.383.252a1.718 1.718 0 0 1 .973 1.3 12.861 12.861 0 0 0 4.64-6.932h-.7a13.4 13.4 0 0 1 -3.94 4.93z" fill="#141e21"/><path d="m35.017 34.632a20.117 20.117 0 0 1 -11.017 3.368 20.105 20.105 0 0 1 -11.067-3.4 1.72 1.72 0 0 0 -.923 1.331c.19.15.39.3.59.45a19.76 19.76 0 0 0 22.8 0c.2-.15.4-.3.59-.45a1.718 1.718 0 0 0 -.973-1.299z" fill="#8a293d"/><path d="m40.865 27.758a12.375 12.375 0 0 0 .135-1.758c0-1.11-7.6-2-17-2s-17 .89-17 2a12.387 12.387 0 0 0 .135 1.758c1.013-.994 8.165-1.758 16.865-1.758s15.852.764 16.865 1.758z" fill="#ededed"/></svg>