<svg version="1.1" id="Layer_1" xmlns="http://www.w3.org/2000/svg" xmlns:xlink="http://www.w3.org/1999/xlink" x="0px" y="0px"
	 width="100%" viewBox="0 0 512 512" enable-background="new 0 0 512 512" xml:space="preserve">
<path fill="#010000" opacity="1.000000" stroke="none" 
	d="
M303.000000,513.000000 
	C202.024521,513.000000 101.549034,513.000000 1.036777,513.000000 
	C1.036777,342.399506 1.036777,171.798981 1.036777,1.099231 
	C171.558823,1.099231 342.117737,1.099231 512.838318,1.099231 
	C512.838318,171.666550 512.838318,342.333252 512.838318,513.000000 
	C443.132294,513.000000 373.316132,513.000000 303.000000,513.000000 
M312.423492,182.772705 
	C312.423492,185.722321 312.423492,188.671921 312.423492,191.570129 
	C322.416504,192.685074 329.739197,185.783356 328.364349,176.159592 
	C325.653351,168.927414 319.795593,165.328476 312.723755,166.575470 
	C312.723755,171.678116 312.723755,176.786835 312.423492,182.772705 
M98.169319,178.593948 
	C99.176559,187.588470 106.325584,193.172867 114.833176,191.197357 
	C114.698578,188.161682 114.560028,185.036865 114.634811,181.014297 
	C114.634811,176.102768 114.634811,171.191238 114.634811,166.334320 
	C105.762100,165.735474 100.030418,170.004822 98.169319,178.593948 
M197.247269,294.012726 
	C191.939850,292.769989 186.632416,291.527252 181.330032,290.285675 
	C181.200790,290.681427 181.011551,290.992371 181.010315,291.304016 
	C180.980469,298.950470 180.955353,306.596985 180.960632,314.243500 
	C180.969238,326.724823 186.323547,332.585236 199.648132,334.437592 
	C203.346451,334.986053 207.044754,335.534515 211.027756,336.125183 
	C211.127594,333.930573 211.238419,332.464844 211.254196,330.998047 
	C211.414810,316.075836 218.841461,308.666138 233.729202,308.612396 
	C238.677612,308.594543 243.626160,308.609558 248.780869,308.609558 
	C248.780869,301.819092 248.780869,295.584717 248.780869,288.896118 
	C232.129333,295.125305 215.247391,296.477386 197.247269,294.012726 
M66.944206,497.957245 
	C77.533722,497.957245 88.123238,497.957245 98.692085,497.957245 
	C98.692085,482.314575 98.692085,467.252228 98.692085,452.080322 
	C88.260574,452.080322 78.134598,452.080322 67.084862,451.909271 
	C61.815613,451.909271 56.546364,451.909271 51.301262,451.909271 
	C49.672947,460.164001 48.199604,467.818054 46.649017,475.456451 
	C43.055569,493.158203 48.016369,498.899902 66.944206,497.957245 
M267.080902,504.302948 
	C268.363892,499.468964 271.701538,497.880249 276.447968,497.958954 
	C285.102783,498.102509 293.761658,497.999573 302.418854,497.999573 
	C353.363068,497.999542 404.307495,498.060059 455.250946,497.862701 
	C458.630737,497.849579 462.629303,496.642944 465.177032,494.565247 
	C467.154480,492.952667 467.316162,489.113525 468.284912,486.264038 
	C465.949738,485.534760 463.615570,484.171967 461.279236,484.168243 
	C390.523590,484.055298 319.767731,484.074921 249.011887,484.083740 
	C247.351593,484.083954 245.691284,484.197601 243.103363,484.088684 
	C231.822037,484.079712 220.540512,484.029633 209.259460,484.081085 
	C204.451324,484.103027 203.006119,486.274933 204.736099,490.719543 
	C206.632553,495.591827 210.294205,497.980255 215.490967,498.000427 
	C222.292892,498.026825 229.095001,498.008453 235.897034,498.012604 
	C243.702744,498.017334 245.045578,498.913116 247.607513,505.806610 
	C250.412598,505.806610 253.217697,505.806610 256.920807,505.933044 
	C259.945862,505.884003 262.970886,505.834961 266.516846,505.895538 
	C266.628998,505.596069 266.741119,505.296570 267.080902,504.302948 
M189.195984,18.997602 
	C170.023041,22.592583 153.639542,31.731556 139.098724,44.414398 
	C135.523636,47.532661 132.139877,50.092640 127.103081,47.554108 
	C126.225555,47.111832 124.233131,47.403931 123.646263,48.103737 
	C119.981743,52.473431 116.570312,57.055367 113.002785,61.660259 
	C117.820908,65.721054 117.694168,69.888908 114.987877,74.517555 
	C100.802055,98.779984 99.995651,125.382622 101.299065,152.460190 
	C105.414917,151.927368 109.363976,151.618713 113.199951,150.787949 
	C114.259506,150.558472 115.201622,148.887192 115.821182,147.683670 
	C118.310654,142.847702 120.652481,137.935730 123.614456,132.702576 
	C133.381912,122.388229 145.033936,118.995796 159.305511,120.493034 
	C171.750473,121.798630 184.582993,121.644638 197.027435,120.229164 
	C219.038559,117.725548 238.309723,108.197098 255.416931,94.091240 
	C262.509094,88.243362 272.565643,89.551521 277.309937,97.141937 
	C283.427460,106.929390 291.402710,113.151421 303.018829,114.886559 
	C308.800568,115.750191 311.675903,119.347153 312.066132,125.202209 
	C312.552307,132.497025 312.480896,139.827972 312.890900,147.129791 
	C312.963776,148.427643 313.979919,150.504974 314.954681,150.769501 
	C318.396118,151.703339 322.008881,152.005753 326.524475,152.695435 
	C325.979767,132.063614 326.392151,111.716850 324.600189,91.566116 
	C323.247742,76.357872 316.374390,63.171108 301.719818,55.650921 
	C300.292053,54.918243 299.059814,53.621685 298.012848,52.358124 
	C287.914978,40.170925 275.321899,31.340767 260.790802,25.405025 
	C237.902939,16.055674 214.329987,13.096862 189.195984,18.997602 
M71.981445,436.835602 
	C80.905823,436.835602 89.830200,436.835602 99.049179,436.835602 
	C99.049179,432.943268 98.772095,429.755951 99.117294,426.637482 
	C99.578659,422.469696 102.121849,419.983093 106.437317,419.947357 
	C110.752266,419.911560 113.186440,422.372009 113.910080,426.510162 
	C114.136772,427.806519 113.999161,429.169586 113.999397,430.502106 
	C114.003067,451.163605 114.001984,471.825104 114.001999,492.486603 
	C114.002007,494.238434 114.002007,495.990265 114.002007,497.815277 
	C140.062012,497.815277 165.355789,497.815277 191.196228,497.815277 
	C188.611084,490.560120 187.899506,483.587280 192.256058,477.019470 
	C196.829605,470.124390 203.892441,468.775085 211.029846,468.912964 
	C211.029846,429.396576 211.029846,390.331635 211.029846,352.684418 
	C200.338974,349.545135 190.053314,347.703705 180.844147,343.502472 
	C170.827606,338.932983 166.819580,329.101440 165.583984,317.915771 
	C140.001648,326.969208 114.929337,335.842163 89.127701,344.809143 
	C77.799110,349.328949 70.509514,357.457458 67.940285,369.395905 
	C64.761177,384.168243 61.914597,399.012329 58.945938,413.829712 
	C57.455200,421.270386 56.012276,428.720642 54.446766,436.679810 
	C60.508419,436.679810 65.786804,436.679810 71.981445,436.835602 
M195.797638,278.054810 
	C243.365158,290.282349 295.029175,252.432571 296.890320,203.430206 
	C297.786957,179.822433 297.232971,156.161118 297.495728,132.525818 
	C297.530029,129.443573 296.191162,128.617767 293.573975,128.019897 
	C283.975922,125.827408 276.249573,120.583267 270.132690,112.939453 
	C268.298645,110.647598 266.637573,108.217339 264.886780,105.836243 
	C264.182098,106.311821 263.750519,106.557678 263.369904,106.866417 
	C234.359421,130.397476 201.088821,139.437134 164.141754,136.229813 
	C158.431274,135.734100 152.660568,135.932007 146.152664,135.788589 
	C136.921921,138.397171 130.133774,145.095200 130.062653,153.900513 
	C129.906799,173.192276 129.100815,192.666245 131.308807,211.747787 
	C135.065826,244.216171 163.525101,272.524902 195.797638,278.054810 
M244.275314,323.576019 
	C241.114990,323.563690 237.954636,323.537537 234.794327,323.541809 
	C227.001785,323.552307 226.246140,324.305420 226.245605,332.093811 
	C226.242645,374.845062 226.244156,417.596344 226.244614,460.347595 
	C226.244629,461.512024 226.192917,462.679901 226.263702,463.840179 
	C226.465271,467.144287 228.007278,469.137268 231.559021,469.078369 
	C235.711258,469.009491 239.863541,468.943634 244.937515,469.046326 
	C309.721558,469.056671 374.505585,469.070862 439.289642,469.070923 
	C445.390503,469.070953 446.285126,468.206970 446.292664,462.154968 
	C446.320648,439.672058 446.296844,417.189056 446.310211,394.706116 
	C446.314453,387.570129 447.328186,386.107513 453.903870,383.566864 
	C453.903870,377.288025 453.903870,370.971771 453.903870,364.674103 
	C447.243561,361.929321 446.320892,360.531921 446.307800,353.108215 
	C446.295746,346.280090 446.306366,339.451904 446.304504,332.623749 
	C446.302124,323.935883 445.938782,323.563171 437.365387,323.562927 
	C374.912750,323.561310 312.460114,323.559906 250.007462,323.573883 
	C248.352982,323.574249 246.698517,323.749664 244.275314,323.576019 
z"/>
<path fill="#EDEDED" opacity="1.000000" stroke="none" 
	d="
M245.044052,323.843445 
	C246.698517,323.749664 248.352982,323.574249 250.007462,323.573883 
	C312.460114,323.559906 374.912750,323.561310 437.365387,323.562927 
	C445.938782,323.563171 446.302124,323.935883 446.304504,332.623749 
	C446.306366,339.451904 446.295746,346.280090 446.307800,353.108215 
	C446.320892,360.531921 447.243561,361.929321 453.903870,364.674103 
	C453.903870,370.971771 453.903870,377.288025 453.903870,383.566864 
	C447.328186,386.107513 446.314453,387.570129 446.310211,394.706116 
	C446.296844,417.189056 446.320648,439.672058 446.292664,462.154968 
	C446.285126,468.206970 445.390503,469.070953 439.289642,469.070923 
	C374.505585,469.070862 309.721558,469.056671 244.471436,468.500671 
	C244.000488,422.019073 243.981705,376.083130 244.035446,330.147308 
	C244.037903,328.045624 244.692947,325.944702 245.044052,323.843445 
M342.533173,420.304626 
	C353.021973,417.158356 360.121674,409.028412 361.009491,399.147308 
	C361.958832,388.581268 356.864410,378.998901 347.792145,374.286072 
	C338.980377,369.708588 327.877228,370.987671 320.228943,377.461487 
	C311.944855,384.473358 309.260559,396.526611 313.763367,406.493469 
	C318.604706,417.209656 328.816223,422.361053 342.533173,420.304626 
z"/>
<path fill="#ECAE6B" opacity="1.000000" stroke="none" 
	d="
M146.917725,135.809143 
	C152.660568,135.932007 158.431274,135.734100 164.141754,136.229813 
	C201.088821,139.437134 234.359421,130.397476 263.369904,106.866417 
	C263.750519,106.557678 264.182098,106.311821 264.886780,105.836243 
	C266.637573,108.217339 268.298645,110.647598 270.132690,112.939453 
	C276.249573,120.583267 283.975922,125.827408 293.573975,128.019897 
	C296.191162,128.617767 297.530029,129.443573 297.495728,132.525818 
	C297.232971,156.161118 297.786957,179.822433 296.890320,203.430206 
	C295.029175,252.432571 243.365158,290.282349 195.336548,277.601440 
	C193.974808,276.454193 193.122559,275.683868 192.166061,275.078094 
	C181.862579,268.552765 172.380951,261.086761 165.101318,251.160660 
	C152.584732,234.093689 146.750961,214.945084 146.954254,193.788742 
	C147.139954,174.464111 146.944946,155.135818 146.917725,135.809143 
z"/>
<path fill="#6C7D87" opacity="1.000000" stroke="none" 
	d="
M89.857033,344.715088 
	C114.929337,335.842163 140.001648,326.969208 165.583984,317.915771 
	C166.819580,329.101440 170.827606,338.932983 180.844147,343.502472 
	C190.053314,347.703705 200.338974,349.545135 211.029846,352.684418 
	C211.029846,390.331635 211.029846,429.396576 211.029846,468.912964 
	C203.892441,468.775085 196.829605,470.124390 192.256058,477.019470 
	C187.899506,483.587280 188.611084,490.560120 191.196228,497.815277 
	C165.355789,497.815277 140.062012,497.815277 114.002007,497.815277 
	C114.002007,495.990265 114.002007,494.238434 114.001999,492.486603 
	C114.001984,471.825104 114.003067,451.163605 113.999397,430.502106 
	C113.999161,429.169586 114.136772,427.806519 113.910080,426.510162 
	C113.186440,422.372009 110.752266,419.911560 106.437317,419.947357 
	C102.121849,419.983093 99.578659,422.469696 99.117294,426.637482 
	C98.772095,429.755951 99.049179,432.943268 99.049179,436.835602 
	C89.830200,436.835602 80.905823,436.835602 71.528793,436.371216 
	C71.322510,434.945374 71.608757,433.992188 71.809441,433.021332 
	C77.891350,403.599426 80.337585,373.434692 89.857033,344.715088 
z"/>
<path fill="#4C4846" opacity="1.000000" stroke="none" 
	d="
M190.013809,19.054298 
	C214.329987,13.096862 237.902939,16.055674 260.790802,25.405025 
	C275.321899,31.340767 287.914978,40.170925 298.012848,52.358124 
	C299.059814,53.621685 300.292053,54.918243 301.719818,55.650921 
	C316.374390,63.171108 323.247742,76.357872 324.600189,91.566116 
	C326.392151,111.716850 325.979767,132.063614 326.524475,152.695435 
	C322.008881,152.005753 318.396118,151.703339 314.954681,150.769501 
	C313.979919,150.504974 312.963776,148.427643 312.890900,147.129791 
	C312.480896,139.827972 312.552307,132.497025 312.066132,125.202209 
	C311.675903,119.347153 308.800568,115.750191 303.018829,114.886559 
	C291.402710,113.151421 283.427460,106.929390 277.309937,97.141937 
	C272.565643,89.551521 262.509094,88.243362 255.416931,94.091240 
	C238.309723,108.197098 219.038559,117.725548 197.027435,120.229164 
	C184.582993,121.644638 171.750473,121.798630 159.305511,120.493034 
	C145.033936,118.995796 133.381912,122.388229 123.041039,132.571930 
	C122.640076,127.023476 122.652412,121.594940 123.014160,116.189804 
	C124.235329,97.943291 130.339111,81.195641 139.879471,65.822716 
	C151.549332,47.018421 167.286133,32.318878 186.964783,21.959045 
	C188.159683,21.329988 189.005539,20.037886 190.013809,19.054298 
z"/>
<path fill="#C6C6C6" opacity="1.000000" stroke="none" 
	d="
M244.030991,484.258362 
	C245.691284,484.197601 247.351593,484.083954 249.011887,484.083740 
	C319.767731,484.074921 390.523590,484.055298 461.279236,484.168243 
	C463.615570,484.171967 465.949738,485.534760 468.284912,486.264038 
	C467.316162,489.113525 467.154480,492.952667 465.177032,494.565247 
	C462.629303,496.642944 458.630737,497.849579 455.250946,497.862701 
	C404.307495,498.060059 353.363068,497.999542 302.418854,497.999573 
	C293.761658,497.999573 285.102783,498.102509 276.447968,497.958954 
	C271.701538,497.880249 268.363892,499.468964 266.789764,504.741150 
	C266.268890,505.329987 266.101318,505.532196 265.995941,505.785919 
	C262.970886,505.834961 259.945862,505.884003 256.395935,505.546387 
	C248.434006,500.169830 242.552887,494.298492 244.030991,484.258362 
z"/>
<path fill="#3D3938" opacity="1.000000" stroke="none" 
	d="
M189.604889,19.025949 
	C189.005539,20.037886 188.159683,21.329988 186.964783,21.959045 
	C167.286133,32.318878 151.549332,47.018421 139.879471,65.822716 
	C130.339111,81.195641 124.235329,97.943291 123.014160,116.189804 
	C122.652412,121.594940 122.640076,127.023476 122.758247,132.746567 
	C120.652481,137.935730 118.310654,142.847702 115.821182,147.683670 
	C115.201622,148.887192 114.259506,150.558472 113.199951,150.787949 
	C109.363976,151.618713 105.414917,151.927368 101.299065,152.460190 
	C99.995651,125.382622 100.802055,98.779984 114.987877,74.517555 
	C117.694168,69.888908 117.820908,65.721054 113.002785,61.660259 
	C116.570312,57.055367 119.981743,52.473431 123.646263,48.103737 
	C124.233131,47.403931 126.225555,47.111832 127.103081,47.554108 
	C132.139877,50.092640 135.523636,47.532661 139.098724,44.414398 
	C153.639542,31.731556 170.023041,22.592583 189.604889,19.025949 
z"/>
<path fill="#D6D6D6" opacity="1.000000" stroke="none" 
	d="
M244.659683,323.709717 
	C244.692947,325.944702 244.037903,328.045624 244.035446,330.147308 
	C243.981705,376.083130 244.000488,422.019073 244.010559,468.415710 
	C239.863541,468.943634 235.711258,469.009491 231.559021,469.078369 
	C228.007278,469.137268 226.465271,467.144287 226.263702,463.840179 
	C226.192917,462.679901 226.244629,461.512024 226.244614,460.347595 
	C226.244156,417.596344 226.242645,374.845062 226.245605,332.093811 
	C226.246140,324.305420 227.001785,323.552307 234.794327,323.541809 
	C237.954636,323.537537 241.114990,323.563690 244.659683,323.709717 
z"/>
<path fill="#DC995D" opacity="1.000000" stroke="none" 
	d="
M146.535187,135.798859 
	C146.944946,155.135818 147.139954,174.464111 146.954254,193.788742 
	C146.750961,214.945084 152.584732,234.093689 165.101318,251.160660 
	C172.380951,261.086761 181.862579,268.552765 192.166061,275.078094 
	C193.122559,275.683868 193.974808,276.454193 194.950027,277.473145 
	C163.525101,272.524902 135.065826,244.216171 131.308807,211.747787 
	C129.100815,192.666245 129.906799,173.192276 130.062653,153.900513 
	C130.133774,145.095200 136.921921,138.397171 146.535187,135.798859 
z"/>
<path fill="#DD9A5E" opacity="1.000000" stroke="none" 
	d="
M68.008621,452.080322 
	C78.134598,452.080322 88.260574,452.080322 98.692085,452.080322 
	C98.692085,467.252228 98.692085,482.314575 98.692085,497.957245 
	C88.123238,497.957245 77.533722,497.957245 66.419884,497.521301 
	C63.310364,490.699677 62.215282,484.319916 63.801769,477.322815 
	C65.684837,469.017670 66.647240,460.503754 68.008621,452.080322 
z"/>
<path fill="#556974" opacity="1.000000" stroke="none" 
	d="
M89.492371,344.762115 
	C80.337585,373.434692 77.891350,403.599426 71.809441,433.021332 
	C71.608757,433.992188 71.322510,434.945374 71.070663,436.293304 
	C65.786804,436.679810 60.508419,436.679810 54.446766,436.679810 
	C56.012276,428.720642 57.455200,421.270386 58.945938,413.829712 
	C61.914597,399.012329 64.761177,384.168243 67.940285,369.395905 
	C70.509514,357.457458 77.799110,349.328949 89.492371,344.762115 
z"/>
<path fill="#D9975C" opacity="1.000000" stroke="none" 
	d="
M198.018524,294.247864 
	C215.247391,296.477386 232.129333,295.125305 248.780869,288.896118 
	C248.780869,295.584717 248.780869,301.819092 248.780869,308.609558 
	C243.626160,308.609558 238.677612,308.594543 233.729202,308.612396 
	C218.841461,308.666138 211.414810,316.075836 211.254196,330.998047 
	C211.238419,332.464844 211.127594,333.930573 211.027756,336.125183 
	C207.044754,335.534515 203.346451,334.986053 199.321335,333.792969 
	C198.669205,320.181488 198.343857,307.214691 198.018524,294.247864 
z"/>
<path fill="#CF8B53" opacity="1.000000" stroke="none" 
	d="
M67.546745,451.994812 
	C66.647240,460.503754 65.684837,469.017670 63.801769,477.322815 
	C62.215282,484.319916 63.310364,490.699677 65.957390,497.449127 
	C48.016369,498.899902 43.055569,493.158203 46.649017,475.456451 
	C48.199604,467.818054 49.672947,460.164001 51.301262,451.909271 
	C56.546364,451.909271 61.815613,451.909271 67.546745,451.994812 
z"/>
<path fill="#CF8B53" opacity="1.000000" stroke="none" 
	d="
M197.632904,294.130310 
	C198.343857,307.214691 198.669205,320.181488 198.993835,333.583557 
	C186.323547,332.585236 180.969238,326.724823 180.960632,314.243500 
	C180.955353,306.596985 180.980469,298.950470 181.010315,291.304016 
	C181.011551,290.992371 181.200790,290.681427 181.330032,290.285675 
	C186.632416,291.527252 191.939850,292.769989 197.632904,294.130310 
z"/>
<path fill="#B2B2B2" opacity="1.000000" stroke="none" 
	d="
M243.567169,484.173523 
	C242.552887,494.298492 248.434006,500.169830 255.946930,505.483185 
	C253.217697,505.806610 250.412598,505.806610 247.607483,505.808594 
	C245.045578,498.913116 243.702744,498.017334 235.897034,498.012604 
	C229.095001,498.008453 222.292892,498.026825 215.490967,498.000427 
	C210.294205,497.980255 206.632553,495.591827 204.736099,490.719543 
	C203.006119,486.274933 204.451324,484.103027 209.259460,484.081085 
	C220.540512,484.029633 231.822037,484.079712 243.567169,484.173523 
z"/>
<path fill="#DB985D" opacity="1.000000" stroke="none" 
	d="
M98.425827,177.954819 
	C100.030418,170.004822 105.762100,165.735474 114.634811,166.334320 
	C114.634811,171.191238 114.634811,176.102768 114.134933,181.489258 
	C108.565308,180.627747 103.495567,179.291290 98.425827,177.954819 
z"/>
<path fill="#DA985D" opacity="1.000000" stroke="none" 
	d="
M312.723755,181.895554 
	C312.723755,176.786835 312.723755,171.678116 312.723755,166.575470 
	C319.795593,165.328476 325.653351,168.927414 328.038452,176.659332 
	C322.716309,178.737915 317.720032,180.316727 312.723755,181.895554 
z"/>
<path fill="#BF804D" opacity="1.000000" stroke="none" 
	d="
M312.573608,182.334137 
	C317.720032,180.316727 322.716309,178.737915 328.078827,177.031357 
	C329.739197,185.783356 322.416504,192.685074 312.423492,191.570129 
	C312.423492,188.671921 312.423492,185.722321 312.573608,182.334137 
z"/>
<path fill="#C0814E" opacity="1.000000" stroke="none" 
	d="
M98.297577,178.274384 
	C103.495567,179.291290 108.565308,180.627747 114.028259,181.938126 
	C114.560028,185.036865 114.698578,188.161682 114.833176,191.197357 
	C106.325584,193.172867 99.176559,187.588470 98.297577,178.274384 
z"/>
<path fill="#B2B2B2" opacity="1.000000" stroke="none" 
	d="
M266.256409,505.840729 
	C266.101318,505.532196 266.268890,505.329987 266.675964,505.088196 
	C266.741119,505.296570 266.628998,505.596069 266.256409,505.840729 
z"/>
<path fill="#030303" opacity="1.000000" stroke="none" 
	d="
M342.134644,420.454712 
	C328.816223,422.361053 318.604706,417.209656 313.763367,406.493469 
	C309.260559,396.526611 311.944855,384.473358 320.228943,377.461487 
	C327.877228,370.987671 338.980377,369.708588 347.792145,374.286072 
	C356.864410,378.998901 361.958832,388.581268 361.009491,399.147308 
	C360.121674,409.028412 353.021973,417.158356 342.134644,420.454712 
M343.765564,402.730499 
	C346.624817,399.097260 347.074707,395.123352 344.647339,391.244049 
	C342.237457,387.392670 338.610931,385.776001 333.293518,387.051025 
	C328.920471,388.701172 326.614136,391.870361 326.660706,396.536255 
	C326.700745,400.547333 328.612091,403.596191 332.319397,405.170105 
	C336.297333,406.858978 340.066406,406.565735 343.765564,402.730499 
z"/>
<path fill="#C1C1C1" opacity="1.000000" stroke="none" 
	d="
M343.112976,403.054138 
	C340.066406,406.565735 336.297333,406.858978 332.319397,405.170105 
	C328.612091,403.596191 326.700745,400.547333 326.660706,396.536255 
	C326.614136,391.870361 328.920471,388.701172 333.645264,387.474609 
	C333.867706,394.855621 337.855896,399.336487 343.112976,403.054138 
z"/>
<path fill="#D6D6D6" opacity="1.000000" stroke="none" 
	d="
M343.439270,402.892334 
	C337.855896,399.336487 333.867706,394.855621 334.004456,387.492615 
	C338.610931,385.776001 342.237457,387.392670 344.647339,391.244049 
	C347.074707,395.123352 346.624817,399.097260 343.439270,402.892334 
z"/>
</svg>