<svg version="1.1" id="Layer_1" xmlns="http://www.w3.org/2000/svg" xmlns:xlink="http://www.w3.org/1999/xlink" x="0px" y="0px"
	 width="100%" viewBox="0 0 512 512" enable-background="new 0 0 512 512" xml:space="preserve">
<path fill="#E58D90" opacity="1.000000" stroke="none" 
	d="
M227.000000,0.999999 
	C228.066666,1.000000 229.133347,1.000000 230.282715,1.348490 
	C230.489929,2.822739 230.784164,3.959558 230.711639,5.072477 
	C230.204453,12.855838 229.301498,20.626871 229.121704,28.415619 
	C228.542328,53.514053 228.643036,78.596664 231.987106,103.558220 
	C234.704300,123.840485 238.889847,143.763626 245.425995,163.193802 
	C251.614349,181.590042 260.381927,198.653595 270.899384,215.016663 
	C256.092621,243.340195 255.358658,271.887970 271.162628,299.164734 
	C290.392792,332.354767 320.151154,347.855255 358.591919,342.874084 
	C393.085449,338.404449 416.290283,318.532745 429.342133,286.143677 
	C441.744141,286.173218 453.699890,286.706848 465.613373,286.215057 
	C481.426208,285.562286 497.205994,284.109222 513.000000,283.000000 
	C513.000000,284.714355 513.000000,286.428711 512.621948,288.293457 
	C511.838959,289.122253 511.216675,289.754395 511.061005,290.485840 
	C508.091980,304.432281 505.776733,318.550293 502.103668,332.306396 
	C497.327423,350.193848 489.658203,366.983063 480.495667,383.120850 
	C471.460938,399.033539 461.309021,414.227631 448.742432,427.417358 
	C437.266602,439.462219 424.824738,450.709991 411.963745,461.281158 
	C395.205658,475.055634 376.291687,485.679993 356.212158,493.819824 
	C335.137329,502.363129 313.445801,509.062317 290.584991,511.098999 
	C290.004791,511.150696 289.526062,512.340820 289.000000,513.000000 
	C267.979095,513.000000 246.958206,513.000000 225.733948,512.618530 
	C224.685852,511.826935 223.881989,511.228485 222.990265,511.035004 
	C209.071915,508.015076 194.993240,505.604492 181.252151,501.929382 
	C163.342957,497.139496 146.591095,489.366913 130.441284,480.198151 
	C114.505730,471.151093 99.506592,460.778076 86.097816,448.389404 
	C72.901756,436.197266 60.459545,423.231110 49.882221,408.523926 
	C35.778473,388.913391 24.136995,368.048706 16.033758,345.306152 
	C9.711411,327.561829 4.475944,309.505402 2.900405,290.587799 
	C2.852263,290.009766 1.659252,289.527130 1.000000,289.000000 
	C1.000000,268.979095 1.000000,248.958206 1.375495,228.739380 
	C2.158215,227.864059 2.774221,227.234421 2.941640,226.502213 
	C5.898908,213.568329 8.184091,200.443649 11.858420,187.719391 
	C17.589994,167.870895 26.106699,149.008270 37.300133,131.702698 
	C46.910763,116.844215 57.373989,102.361771 68.948402,89.002403 
	C78.854095,77.569092 90.243187,67.172020 102.124199,57.766853 
	C114.808960,47.725418 128.305893,38.435406 142.398941,30.507254 
	C168.177551,16.005312 195.838562,6.353377 225.435883,2.903116 
	C226.023224,2.834648 226.481506,1.659062 227.000000,0.999999 
M192.933762,258.124481 
	C194.337738,255.190872 195.489960,252.102112 197.186478,249.348755 
	C208.365082,231.206818 219.562866,213.074814 230.993454,195.091522 
	C233.566132,191.044052 232.950363,188.971695 228.910599,186.560272 
	C217.477203,179.735489 206.230408,172.593750 195.001877,165.432953 
	C191.935379,163.477325 190.321686,163.844315 188.337433,167.086914 
	C177.736252,184.410828 166.878113,201.577591 156.086761,218.784882 
	C155.078949,220.391830 153.917007,221.902084 152.719620,223.609879 
	C151.481461,222.719101 150.777817,222.288513 150.160400,221.757660 
	C133.757141,207.653961 117.298599,193.613190 101.027161,179.358856 
	C98.161301,176.848251 96.470169,176.526718 93.739784,179.495285 
	C85.060028,188.932190 76.202316,198.211853 67.198906,207.340759 
	C64.484879,210.092606 64.793518,211.738937 67.514191,214.155289 
	C84.813019,229.519012 101.999535,245.009201 119.225937,260.454498 
	C121.524094,262.515015 123.838654,264.557312 126.127388,266.591858 
	C110.289597,291.963074 94.820381,316.743896 79.080345,341.958527 
	C93.781654,350.153442 107.673683,357.985291 121.725082,365.519928 
	C122.605072,365.991821 125.369888,364.550537 126.177765,363.301025 
	C132.504196,353.516266 138.559479,343.556396 144.712326,333.659180 
	C151.282471,323.090759 157.867813,312.531769 164.707306,301.549957 
	C166.400589,302.781647 167.798233,303.623779 168.992340,304.693176 
	C186.102280,320.016449 203.238388,335.311523 220.219193,350.776978 
	C222.937012,353.252258 224.594543,353.450653 227.059784,350.571167 
	C236.476013,339.572662 246.028046,328.689056 255.638275,317.859192 
	C257.623810,315.621643 257.059052,314.187286 255.082352,312.495850 
	C248.759964,307.085938 242.498672,301.604553 236.220245,296.143341 
	C221.909271,283.695068 207.602112,271.242401 192.933762,258.124481 
z"/>
<path fill="#000000" opacity="1.000000" stroke="none" 
	d="
M259.000000,0.999999 
	C343.593719,1.000000 428.187408,1.000000 513.000000,1.000000 
	C513.000000,85.354103 513.000000,169.708389 512.735596,254.834656 
	C511.947266,255.204849 511.369812,254.856537 510.906860,254.393723 
	C427.407715,170.919998 343.914825,87.440094 260.457184,3.924898 
	C259.726990,3.194221 259.475159,1.985512 259.000000,0.999999 
z"/>
<path fill="#FBF3DB" opacity="1.000000" stroke="none" 
	d="
M258.666687,0.999999 
	C259.475159,1.985512 259.726990,3.194221 260.457184,3.924898 
	C343.914825,87.440094 427.407715,170.919998 510.906860,254.393723 
	C511.369812,254.856537 511.947266,255.204849 512.735596,255.303314 
	C513.000000,255.444443 513.000000,255.888901 512.534668,256.630920 
	C505.254120,256.650208 498.428711,256.524384 491.625488,256.068237 
	C454.311737,253.566452 417.769348,247.261536 382.252899,235.091064 
	C333.395721,218.349152 299.564941,186.696777 281.690948,137.807739 
	C265.511353,93.553230 258.574036,47.802795 257.000000,1.000000 
	C257.444458,1.000000 257.888885,1.000000 258.666687,0.999999 
z"/>
<path fill="#923C36" opacity="1.000000" stroke="none" 
	d="
M256.531342,1.000000 
	C258.574036,47.802795 265.511353,93.553230 281.690948,137.807739 
	C299.564941,186.696777 333.395721,218.349152 382.252899,235.091064 
	C417.769348,247.261536 454.311737,253.566452 491.625488,256.068237 
	C498.428711,256.524384 505.254120,256.650208 512.534668,256.964233 
	C513.000000,265.354218 513.000000,273.708466 513.000000,282.531342 
	C497.205994,284.109222 481.426208,285.562286 465.613373,286.215057 
	C453.699890,286.706848 441.744141,286.173218 428.903503,286.071899 
	C414.318756,284.514923 400.637695,282.982025 386.651306,281.277405 
	C365.968201,276.947266 345.990997,271.444550 327.507935,261.690643 
	C318.453888,256.912598 309.885284,251.214600 300.938110,245.636627 
	C290.900757,235.141830 281.022308,224.943390 271.143860,214.744949 
	C260.381927,198.653595 251.614349,181.590042 245.425995,163.193802 
	C238.889847,143.763626 234.704300,123.840485 231.987106,103.558220 
	C228.643036,78.596664 228.542328,53.514053 229.121704,28.415619 
	C229.301498,20.626871 230.204453,12.855838 230.711639,5.072477 
	C230.784164,3.959558 230.489929,2.822739 230.682709,1.348490 
	C239.354233,1.000000 247.708450,1.000000 256.531342,1.000000 
z"/>
<path fill="#000000" opacity="1.000000" stroke="none" 
	d="
M226.531342,0.999999 
	C226.481506,1.659062 226.023224,2.834648 225.435883,2.903116 
	C195.838562,6.353377 168.177551,16.005312 142.398941,30.507254 
	C128.305893,38.435406 114.808960,47.725418 102.124199,57.766853 
	C90.243187,67.172020 78.854095,77.569092 68.948402,89.002403 
	C57.373989,102.361771 46.910763,116.844215 37.300133,131.702698 
	C26.106699,149.008270 17.589994,167.870895 11.858420,187.719391 
	C8.184091,200.443649 5.898908,213.568329 2.941640,226.502213 
	C2.774221,227.234421 2.158215,227.864059 1.375495,228.270721 
	C1.000000,152.406448 1.000000,76.812904 1.000000,1.000000 
	C76.020752,1.000000 151.041718,1.000000 226.531342,0.999999 
z"/>
<path fill="#000000" opacity="1.000000" stroke="none" 
	d="
M1.000000,289.468658 
	C1.659252,289.527130 2.852263,290.009766 2.900405,290.587799 
	C4.475944,309.505402 9.711411,327.561829 16.033758,345.306152 
	C24.136995,368.048706 35.778473,388.913391 49.882221,408.523926 
	C60.459545,423.231110 72.901756,436.197266 86.097816,448.389404 
	C99.506592,460.778076 114.505730,471.151093 130.441284,480.198151 
	C146.591095,489.366913 163.342957,497.139496 181.252151,501.929382 
	C194.993240,505.604492 209.071915,508.015076 222.990265,511.035004 
	C223.881989,511.228485 224.685852,511.826935 225.265289,512.618530 
	C150.406296,513.000000 75.812599,513.000000 1.000000,513.000000 
	C1.000000,438.645905 1.000000,364.291626 1.000000,289.468658 
z"/>
<path fill="#000000" opacity="1.000000" stroke="none" 
	d="
M289.468689,513.000000 
	C289.526062,512.340820 290.004791,511.150696 290.584991,511.098999 
	C313.445801,509.062317 335.137329,502.363129 356.212158,493.819824 
	C376.291687,485.679993 395.205658,475.055634 411.963745,461.281158 
	C424.824738,450.709991 437.266602,439.462219 448.742432,427.417358 
	C461.309021,414.227631 471.460938,399.033539 480.495667,383.120850 
	C489.658203,366.983063 497.327423,350.193848 502.103668,332.306396 
	C505.776733,318.550293 508.091980,304.432281 511.061005,290.485840 
	C511.216675,289.754395 511.838959,289.122253 512.621948,288.721924 
	C513.000000,363.593719 513.000000,438.187408 513.000000,513.000000 
	C438.645905,513.000000 364.291626,513.000000 289.468689,513.000000 
z"/>
<path fill="#FBF2DB" opacity="1.000000" stroke="none" 
	d="
M193.113586,258.458008 
	C207.602112,271.242401 221.909271,283.695068 236.220245,296.143341 
	C242.498672,301.604553 248.759964,307.085938 255.082352,312.495850 
	C257.059052,314.187286 257.623810,315.621643 255.638275,317.859192 
	C246.028046,328.689056 236.476013,339.572662 227.059784,350.571167 
	C224.594543,353.450653 222.937012,353.252258 220.219193,350.776978 
	C203.238388,335.311523 186.102280,320.016449 168.992340,304.693176 
	C167.798233,303.623779 166.400589,302.781647 164.707306,301.549957 
	C157.867813,312.531769 151.282471,323.090759 144.712326,333.659180 
	C138.559479,343.556396 132.504196,353.516266 126.177765,363.301025 
	C125.369888,364.550537 122.605072,365.991821 121.725082,365.519928 
	C107.673683,357.985291 93.781654,350.153442 79.080345,341.958527 
	C94.820381,316.743896 110.289597,291.963074 126.127388,266.591858 
	C123.838654,264.557312 121.524094,262.515015 119.225937,260.454498 
	C101.999535,245.009201 84.813019,229.519012 67.514191,214.155289 
	C64.793518,211.738937 64.484879,210.092606 67.198906,207.340759 
	C76.202316,198.211853 85.060028,188.932190 93.739784,179.495285 
	C96.470169,176.526718 98.161301,176.848251 101.027161,179.358856 
	C117.298599,193.613190 133.757141,207.653961 150.160400,221.757660 
	C150.777817,222.288513 151.481461,222.719101 152.719620,223.609879 
	C153.917007,221.902084 155.078949,220.391830 156.086761,218.784882 
	C166.878113,201.577591 177.736252,184.410828 188.337433,167.086914 
	C190.321686,163.844315 191.935379,163.477325 195.001877,165.432953 
	C206.230408,172.593750 217.477203,179.735489 228.910599,186.560272 
	C232.950363,188.971695 233.566132,191.044052 230.993454,195.091522 
	C219.562866,213.074814 208.365082,231.206818 197.186478,249.348755 
	C195.489960,252.102112 194.337738,255.190872 193.113586,258.458008 
z"/>
<path fill="#FBF2DA" opacity="1.000000" stroke="none" 
	d="
M386.956665,281.449097 
	C400.637695,282.982025 414.318756,284.514923 428.438416,286.119568 
	C416.290283,318.532745 393.085449,338.404449 358.591919,342.874084 
	C320.151154,347.855255 290.392792,332.354767 271.162628,299.164734 
	C255.358658,271.887970 256.092621,243.340195 270.899384,215.016663 
	C281.022308,224.943390 290.900757,235.141830 300.631592,245.892517 
	C300.165741,252.025070 298.960236,257.722443 299.678314,263.166046 
	C303.388031,291.288086 331.680481,307.765472 357.604187,301.791595 
	C369.925018,298.952362 380.551208,293.100708 386.956665,281.449097 
z"/>
<path fill="#E58D90" opacity="1.000000" stroke="none" 
	d="
M386.651306,281.277405 
	C380.551208,293.100708 369.925018,298.952362 357.604187,301.791595 
	C331.680481,307.765472 303.388031,291.288086 299.678314,263.166046 
	C298.960236,257.722443 300.165741,252.025070 300.790466,246.188873 
	C309.885284,251.214600 318.453888,256.912598 327.507935,261.690643 
	C345.990997,271.444550 365.968201,276.947266 386.651306,281.277405 
z"/>
</svg>